<svg width="669" height="377" viewBox="0 0 669 377" fill="none" xmlns="http://www.w3.org/2000/svg">
<rect width="668.666" height="376.125" fill="#0C0C0C"/>
<rect x="127.409" y="201.499" width="196.756" height="47.1726" rx="11.4927" stroke="#565656" stroke-width="1.39306"/>
<rect x="127.409" y="48.1627" width="420.27" height="122.279" rx="23.682" fill="#0C0C0C" stroke="#9E9E9E" stroke-width="1.39306"/>
<rect x="127.409" y="262.747" width="196.756" height="47.1726" rx="11.4927" fill="#3DDC97" stroke="#066015" stroke-width="1.39306"/>
<rect x="350.923" y="201.499" width="196.756" height="47.1726" rx="11.4927" stroke="#565656" stroke-width="1.39306"/>
<rect x="350.923" y="262.747" width="196.756" height="47.1726" rx="11.4927" fill="#2C2C2C" stroke="#565656" stroke-width="1.39306"/>
<path d="M431.016 227.79V220.685L431.479 221.191H429.315V220.254H432.081V227.79H431.016ZM436.669 227.876C436.059 227.876 435.531 227.787 435.086 227.607C434.641 227.428 434.297 227.173 434.053 226.843C433.809 226.505 433.687 226.111 433.687 225.659C433.687 225.214 433.802 224.837 434.031 224.528C434.268 224.212 434.609 223.976 435.054 223.818C435.499 223.653 436.037 223.57 436.669 223.57C437.301 223.57 437.839 223.653 438.284 223.818C438.736 223.976 439.081 224.212 439.317 224.528C439.554 224.844 439.673 225.221 439.673 225.659C439.673 226.111 439.551 226.505 439.307 226.843C439.063 227.173 438.714 227.428 438.262 227.607C437.81 227.787 437.279 227.876 436.669 227.876ZM436.669 227.004C437.272 227.004 437.742 226.882 438.079 226.638C438.424 226.387 438.596 226.05 438.596 225.626C438.596 225.21 438.424 224.883 438.079 224.647C437.742 224.403 437.272 224.281 436.669 224.281C436.073 224.281 435.607 224.403 435.269 224.647C434.932 224.883 434.763 225.21 434.763 225.626C434.763 226.05 434.932 226.387 435.269 226.638C435.607 226.882 436.073 227.004 436.669 227.004ZM436.669 223.462C437.193 223.462 437.602 223.355 437.896 223.139C438.198 222.924 438.348 222.63 438.348 222.257C438.348 221.876 438.194 221.578 437.885 221.363C437.577 221.148 437.171 221.04 436.669 221.04C436.167 221.04 435.765 221.148 435.463 221.363C435.169 221.578 435.022 221.876 435.022 222.257C435.022 222.63 435.165 222.924 435.452 223.139C435.747 223.355 436.152 223.462 436.669 223.462ZM436.669 224.151C436.095 224.151 435.607 224.076 435.205 223.925C434.803 223.767 434.494 223.545 434.279 223.258C434.064 222.964 433.956 222.615 433.956 222.213C433.956 221.79 434.067 221.428 434.29 221.126C434.519 220.818 434.839 220.581 435.248 220.416C435.657 220.251 436.131 220.168 436.669 220.168C437.214 220.168 437.692 220.251 438.101 220.416C438.51 220.581 438.829 220.818 439.059 221.126C439.289 221.428 439.403 221.79 439.403 222.213C439.403 222.615 439.296 222.964 439.081 223.258C438.865 223.545 438.553 223.767 438.144 223.925C437.735 224.076 437.243 224.151 436.669 224.151ZM443.737 227.876C443.149 227.876 442.621 227.726 442.155 227.424C441.695 227.123 441.329 226.685 441.057 226.111C440.791 225.537 440.658 224.84 440.658 224.022C440.658 223.204 440.791 222.508 441.057 221.934C441.329 221.359 441.695 220.922 442.155 220.62C442.621 220.319 443.149 220.168 443.737 220.168C444.319 220.168 444.843 220.319 445.309 220.62C445.776 220.922 446.142 221.359 446.407 221.934C446.673 222.508 446.806 223.204 446.806 224.022C446.806 224.84 446.673 225.537 446.407 226.111C446.142 226.685 445.776 227.123 445.309 227.424C444.843 227.726 444.319 227.876 443.737 227.876ZM443.737 226.918C444.132 226.918 444.477 226.811 444.771 226.595C445.072 226.38 445.306 226.057 445.471 225.626C445.643 225.196 445.729 224.661 445.729 224.022C445.729 223.383 445.643 222.849 445.471 222.418C445.306 221.987 445.072 221.664 444.771 221.449C444.477 221.234 444.132 221.126 443.737 221.126C443.343 221.126 442.994 221.234 442.693 221.449C442.392 221.664 442.155 221.987 441.982 222.418C441.817 222.849 441.735 223.383 441.735 224.022C441.735 224.661 441.817 225.196 441.982 225.626C442.155 226.057 442.392 226.38 442.693 226.595C442.994 226.811 443.343 226.918 443.737 226.918ZM448.423 227.855C448.222 227.855 448.05 227.787 447.907 227.65C447.763 227.507 447.691 227.327 447.691 227.112C447.691 226.897 447.763 226.721 447.907 226.584C448.05 226.448 448.222 226.38 448.423 226.38C448.617 226.38 448.782 226.448 448.919 226.584C449.062 226.721 449.134 226.897 449.134 227.112C449.134 227.327 449.062 227.507 448.919 227.65C448.782 227.787 448.617 227.855 448.423 227.855ZM453.105 227.876C452.516 227.876 451.989 227.726 451.522 227.424C451.063 227.123 450.697 226.685 450.424 226.111C450.159 225.537 450.026 224.84 450.026 224.022C450.026 223.204 450.159 222.508 450.424 221.934C450.697 221.359 451.063 220.922 451.522 220.62C451.989 220.319 452.516 220.168 453.105 220.168C453.686 220.168 454.21 220.319 454.677 220.62C455.143 220.922 455.509 221.359 455.775 221.934C456.04 222.508 456.173 223.204 456.173 224.022C456.173 224.84 456.04 225.537 455.775 226.111C455.509 226.685 455.143 227.123 454.677 227.424C454.21 227.726 453.686 227.876 453.105 227.876ZM453.105 226.918C453.5 226.918 453.844 226.811 454.138 226.595C454.44 226.38 454.673 226.057 454.838 225.626C455.01 225.196 455.097 224.661 455.097 224.022C455.097 223.383 455.01 222.849 454.838 222.418C454.673 221.987 454.44 221.664 454.138 221.449C453.844 221.234 453.5 221.126 453.105 221.126C452.71 221.126 452.362 221.234 452.061 221.449C451.759 221.664 451.522 221.987 451.35 222.418C451.185 222.849 451.102 223.383 451.102 224.022C451.102 224.661 451.185 225.196 451.35 225.626C451.522 226.057 451.759 226.38 452.061 226.595C452.362 226.811 452.71 226.918 453.105 226.918ZM460.286 227.876C459.697 227.876 459.17 227.726 458.703 227.424C458.244 227.123 457.878 226.685 457.605 226.111C457.339 225.537 457.207 224.84 457.207 224.022C457.207 223.204 457.339 222.508 457.605 221.934C457.878 221.359 458.244 220.922 458.703 220.62C459.17 220.319 459.697 220.168 460.286 220.168C460.867 220.168 461.391 220.319 461.857 220.62C462.324 220.922 462.69 221.359 462.955 221.934C463.221 222.508 463.354 223.204 463.354 224.022C463.354 224.84 463.221 225.537 462.955 226.111C462.69 226.685 462.324 227.123 461.857 227.424C461.391 227.726 460.867 227.876 460.286 227.876ZM460.286 226.918C460.68 226.918 461.025 226.811 461.319 226.595C461.621 226.38 461.854 226.057 462.019 225.626C462.191 225.196 462.277 224.661 462.277 224.022C462.277 223.383 462.191 222.849 462.019 222.418C461.854 221.987 461.621 221.664 461.319 221.449C461.025 221.234 460.68 221.126 460.286 221.126C459.891 221.126 459.543 221.234 459.241 221.449C458.94 221.664 458.703 221.987 458.531 222.418C458.366 222.849 458.283 223.383 458.283 224.022C458.283 224.661 458.366 225.196 458.531 225.626C458.703 226.057 458.94 226.38 459.241 226.595C459.543 226.811 459.891 226.918 460.286 226.918ZM467.466 227.876C466.878 227.876 466.35 227.726 465.884 227.424C465.424 227.123 465.058 226.685 464.786 226.111C464.52 225.537 464.387 224.84 464.387 224.022C464.387 223.204 464.52 222.508 464.786 221.934C465.058 221.359 465.424 220.922 465.884 220.62C466.35 220.319 466.878 220.168 467.466 220.168C468.048 220.168 468.572 220.319 469.038 220.62C469.505 220.922 469.871 221.359 470.136 221.934C470.402 222.508 470.535 223.204 470.535 224.022C470.535 224.84 470.402 225.537 470.136 226.111C469.871 226.685 469.505 227.123 469.038 227.424C468.572 227.726 468.048 227.876 467.466 227.876ZM467.466 226.918C467.861 226.918 468.206 226.811 468.5 226.595C468.801 226.38 469.034 226.057 469.2 225.626C469.372 225.196 469.458 224.661 469.458 224.022C469.458 223.383 469.372 222.849 469.2 222.418C469.034 221.987 468.801 221.664 468.5 221.449C468.206 221.234 467.861 221.126 467.466 221.126C467.072 221.126 466.723 221.234 466.422 221.449C466.121 221.664 465.884 221.987 465.711 222.418C465.546 222.849 465.464 223.383 465.464 224.022C465.464 224.661 465.546 225.196 465.711 225.626C465.884 226.057 466.121 226.38 466.422 226.595C466.723 226.811 467.072 226.918 467.466 226.918Z" fill="#9E9E9E"/>
<path d="M208.45 227.79V220.685L208.913 221.191H206.749V220.254H209.516V227.79H208.45ZM214.104 227.876C213.493 227.876 212.966 227.787 212.521 227.607C212.076 227.428 211.731 227.173 211.487 226.843C211.243 226.505 211.121 226.111 211.121 225.659C211.121 225.214 211.236 224.837 211.466 224.528C211.703 224.212 212.044 223.976 212.489 223.818C212.934 223.653 213.472 223.57 214.104 223.57C214.735 223.57 215.273 223.653 215.718 223.818C216.171 223.976 216.515 224.212 216.752 224.528C216.989 224.844 217.107 225.221 217.107 225.659C217.107 226.111 216.985 226.505 216.741 226.843C216.497 227.173 216.149 227.428 215.697 227.607C215.245 227.787 214.714 227.876 214.104 227.876ZM214.104 227.004C214.706 227.004 215.177 226.882 215.514 226.638C215.858 226.387 216.031 226.05 216.031 225.626C216.031 225.21 215.858 224.883 215.514 224.647C215.177 224.403 214.706 224.281 214.104 224.281C213.508 224.281 213.041 224.403 212.704 224.647C212.367 224.883 212.198 225.21 212.198 225.626C212.198 226.05 212.367 226.387 212.704 226.638C213.041 226.882 213.508 227.004 214.104 227.004ZM214.104 223.462C214.627 223.462 215.037 223.355 215.331 223.139C215.632 222.924 215.783 222.63 215.783 222.257C215.783 221.876 215.629 221.578 215.32 221.363C215.011 221.148 214.606 221.04 214.104 221.04C213.601 221.04 213.199 221.148 212.898 221.363C212.603 221.578 212.456 221.876 212.456 222.257C212.456 222.63 212.6 222.924 212.887 223.139C213.181 223.355 213.587 223.462 214.104 223.462ZM214.104 224.151C213.529 224.151 213.041 224.076 212.639 223.925C212.237 223.767 211.929 223.545 211.714 223.258C211.498 222.964 211.391 222.615 211.391 222.213C211.391 221.79 211.502 221.428 211.724 221.126C211.954 220.818 212.273 220.581 212.682 220.416C213.092 220.251 213.565 220.168 214.104 220.168C214.649 220.168 215.126 220.251 215.535 220.416C215.944 220.581 216.264 220.818 216.494 221.126C216.723 221.428 216.838 221.79 216.838 222.213C216.838 222.615 216.73 222.964 216.515 223.258C216.3 223.545 215.988 223.767 215.578 223.925C215.169 224.076 214.678 224.151 214.104 224.151ZM218.909 227.855C218.708 227.855 218.535 227.787 218.392 227.65C218.248 227.507 218.176 227.327 218.176 227.112C218.176 226.897 218.248 226.721 218.392 226.584C218.535 226.448 218.708 226.38 218.909 226.38C219.102 226.38 219.267 226.448 219.404 226.584C219.547 226.721 219.619 226.897 219.619 227.112C219.619 227.327 219.547 227.507 219.404 227.65C219.267 227.787 219.102 227.855 218.909 227.855ZM223.59 227.876C223.001 227.876 222.474 227.726 222.007 227.424C221.548 227.123 221.182 226.685 220.909 226.111C220.644 225.537 220.511 224.84 220.511 224.022C220.511 223.204 220.644 222.508 220.909 221.934C221.182 221.359 221.548 220.922 222.007 220.62C222.474 220.319 223.001 220.168 223.59 220.168C224.171 220.168 224.695 220.319 225.162 220.62C225.628 220.922 225.994 221.359 226.26 221.934C226.525 222.508 226.658 223.204 226.658 224.022C226.658 224.84 226.525 225.537 226.26 226.111C225.994 226.685 225.628 227.123 225.162 227.424C224.695 227.726 224.171 227.876 223.59 227.876ZM223.59 226.918C223.985 226.918 224.329 226.811 224.624 226.595C224.925 226.38 225.158 226.057 225.323 225.626C225.496 225.196 225.582 224.661 225.582 224.022C225.582 223.383 225.496 222.849 225.323 222.418C225.158 221.987 224.925 221.664 224.624 221.449C224.329 221.234 223.985 221.126 223.59 221.126C223.195 221.126 222.847 221.234 222.546 221.449C222.244 221.664 222.007 221.987 221.835 222.418C221.67 222.849 221.588 223.383 221.588 224.022C221.588 224.661 221.67 225.196 221.835 225.626C222.007 226.057 222.244 226.38 222.546 226.595C222.847 226.811 223.195 226.918 223.59 226.918ZM230.771 227.876C230.182 227.876 229.655 227.726 229.188 227.424C228.729 227.123 228.363 226.685 228.09 226.111C227.824 225.537 227.692 224.84 227.692 224.022C227.692 223.204 227.824 222.508 228.09 221.934C228.363 221.359 228.729 220.922 229.188 220.62C229.655 220.319 230.182 220.168 230.771 220.168C231.352 220.168 231.876 220.319 232.343 220.62C232.809 220.922 233.175 221.359 233.441 221.934C233.706 222.508 233.839 223.204 233.839 224.022C233.839 224.84 233.706 225.537 233.441 226.111C233.175 226.685 232.809 227.123 232.343 227.424C231.876 227.726 231.352 227.876 230.771 227.876ZM230.771 226.918C231.165 226.918 231.51 226.811 231.804 226.595C232.106 226.38 232.339 226.057 232.504 225.626C232.676 225.196 232.762 224.661 232.762 224.022C232.762 223.383 232.676 222.849 232.504 222.418C232.339 221.987 232.106 221.664 231.804 221.449C231.51 221.234 231.165 221.126 230.771 221.126C230.376 221.126 230.028 221.234 229.726 221.449C229.425 221.664 229.188 221.987 229.016 222.418C228.851 222.849 228.768 223.383 228.768 224.022C228.768 224.661 228.851 225.196 229.016 225.626C229.188 226.057 229.425 226.38 229.726 226.595C230.028 226.811 230.376 226.918 230.771 226.918ZM237.951 227.876C237.363 227.876 236.835 227.726 236.369 227.424C235.91 227.123 235.543 226.685 235.271 226.111C235.005 225.537 234.872 224.84 234.872 224.022C234.872 223.204 235.005 222.508 235.271 221.934C235.543 221.359 235.91 220.922 236.369 220.62C236.835 220.319 237.363 220.168 237.951 220.168C238.533 220.168 239.057 220.319 239.523 220.62C239.99 220.922 240.356 221.359 240.621 221.934C240.887 222.508 241.02 223.204 241.02 224.022C241.02 224.84 240.887 225.537 240.621 226.111C240.356 226.685 239.99 227.123 239.523 227.424C239.057 227.726 238.533 227.876 237.951 227.876ZM237.951 226.918C238.346 226.918 238.691 226.811 238.985 226.595C239.286 226.38 239.52 226.057 239.685 225.626C239.857 225.196 239.943 224.661 239.943 224.022C239.943 223.383 239.857 222.849 239.685 222.418C239.52 221.987 239.286 221.664 238.985 221.449C238.691 221.234 238.346 221.126 237.951 221.126C237.557 221.126 237.209 221.234 236.907 221.449C236.606 221.664 236.369 221.987 236.197 222.418C236.032 222.849 235.949 223.383 235.949 224.022C235.949 224.661 236.032 225.196 236.197 225.626C236.369 226.057 236.606 226.38 236.907 226.595C237.209 226.811 237.557 226.918 237.951 226.918Z" fill="#9E9E9E"/>
<path d="M208.45 289.038V281.932L208.913 282.438H206.749V281.502H209.516V289.038H208.45ZM214.104 289.124C213.493 289.124 212.966 289.034 212.521 288.855C212.076 288.675 211.731 288.421 211.487 288.09C211.243 287.753 211.121 287.358 211.121 286.906C211.121 286.461 211.236 286.084 211.466 285.776C211.703 285.46 212.044 285.223 212.489 285.065C212.934 284.9 213.472 284.818 214.104 284.818C214.735 284.818 215.273 284.9 215.718 285.065C216.171 285.223 216.515 285.46 216.752 285.776C216.989 286.092 217.107 286.468 217.107 286.906C217.107 287.358 216.985 287.753 216.741 288.09C216.497 288.421 216.149 288.675 215.697 288.855C215.245 289.034 214.714 289.124 214.104 289.124ZM214.104 288.252C214.706 288.252 215.177 288.13 215.514 287.886C215.858 287.635 216.031 287.297 216.031 286.874C216.031 286.458 215.858 286.131 215.514 285.894C215.177 285.65 214.706 285.528 214.104 285.528C213.508 285.528 213.041 285.65 212.704 285.894C212.367 286.131 212.198 286.458 212.198 286.874C212.198 287.297 212.367 287.635 212.704 287.886C213.041 288.13 213.508 288.252 214.104 288.252ZM214.104 284.71C214.627 284.71 215.037 284.602 215.331 284.387C215.632 284.172 215.783 283.877 215.783 283.504C215.783 283.124 215.629 282.826 215.32 282.611C215.011 282.395 214.606 282.288 214.104 282.288C213.601 282.288 213.199 282.395 212.898 282.611C212.603 282.826 212.456 283.124 212.456 283.504C212.456 283.877 212.6 284.172 212.887 284.387C213.181 284.602 213.587 284.71 214.104 284.71ZM214.104 285.399C213.529 285.399 213.041 285.324 212.639 285.173C212.237 285.015 211.929 284.792 211.714 284.505C211.498 284.211 211.391 283.863 211.391 283.461C211.391 283.038 211.502 282.675 211.724 282.374C211.954 282.065 212.273 281.828 212.682 281.663C213.092 281.498 213.565 281.416 214.104 281.416C214.649 281.416 215.126 281.498 215.535 281.663C215.944 281.828 216.264 282.065 216.494 282.374C216.723 282.675 216.838 283.038 216.838 283.461C216.838 283.863 216.73 284.211 216.515 284.505C216.3 284.792 215.988 285.015 215.578 285.173C215.169 285.324 214.678 285.399 214.104 285.399ZM218.909 289.102C218.708 289.102 218.535 289.034 218.392 288.898C218.248 288.754 218.176 288.575 218.176 288.36C218.176 288.144 218.248 287.968 218.392 287.832C218.535 287.696 218.708 287.627 218.909 287.627C219.102 287.627 219.267 287.696 219.404 287.832C219.547 287.968 219.619 288.144 219.619 288.36C219.619 288.575 219.547 288.754 219.404 288.898C219.267 289.034 219.102 289.102 218.909 289.102ZM223.59 289.124C223.001 289.124 222.474 288.973 222.007 288.672C221.548 288.37 221.182 287.932 220.909 287.358C220.644 286.784 220.511 286.088 220.511 285.27C220.511 284.452 220.644 283.755 220.909 283.181C221.182 282.607 221.548 282.169 222.007 281.868C222.474 281.566 223.001 281.416 223.59 281.416C224.171 281.416 224.695 281.566 225.162 281.868C225.628 282.169 225.994 282.607 226.26 283.181C226.525 283.755 226.658 284.452 226.658 285.27C226.658 286.088 226.525 286.784 226.26 287.358C225.994 287.932 225.628 288.37 225.162 288.672C224.695 288.973 224.171 289.124 223.59 289.124ZM223.59 288.166C223.985 288.166 224.329 288.058 224.624 287.843C224.925 287.627 225.158 287.304 225.323 286.874C225.496 286.443 225.582 285.908 225.582 285.27C225.582 284.631 225.496 284.096 225.323 283.666C225.158 283.235 224.925 282.912 224.624 282.697C224.329 282.481 223.985 282.374 223.59 282.374C223.195 282.374 222.847 282.481 222.546 282.697C222.244 282.912 222.007 283.235 221.835 283.666C221.67 284.096 221.588 284.631 221.588 285.27C221.588 285.908 221.67 286.443 221.835 286.874C222.007 287.304 222.244 287.627 222.546 287.843C222.847 288.058 223.195 288.166 223.59 288.166ZM230.771 289.124C230.182 289.124 229.655 288.973 229.188 288.672C228.729 288.37 228.363 287.932 228.09 287.358C227.824 286.784 227.692 286.088 227.692 285.27C227.692 284.452 227.824 283.755 228.09 283.181C228.363 282.607 228.729 282.169 229.188 281.868C229.655 281.566 230.182 281.416 230.771 281.416C231.352 281.416 231.876 281.566 232.343 281.868C232.809 282.169 233.175 282.607 233.441 283.181C233.706 283.755 233.839 284.452 233.839 285.27C233.839 286.088 233.706 286.784 233.441 287.358C233.175 287.932 232.809 288.37 232.343 288.672C231.876 288.973 231.352 289.124 230.771 289.124ZM230.771 288.166C231.165 288.166 231.51 288.058 231.804 287.843C232.106 287.627 232.339 287.304 232.504 286.874C232.676 286.443 232.762 285.908 232.762 285.27C232.762 284.631 232.676 284.096 232.504 283.666C232.339 283.235 232.106 282.912 231.804 282.697C231.51 282.481 231.165 282.374 230.771 282.374C230.376 282.374 230.028 282.481 229.726 282.697C229.425 282.912 229.188 283.235 229.016 283.666C228.851 284.096 228.768 284.631 228.768 285.27C228.768 285.908 228.851 286.443 229.016 286.874C229.188 287.304 229.425 287.627 229.726 287.843C230.028 288.058 230.376 288.166 230.771 288.166ZM237.951 289.124C237.363 289.124 236.835 288.973 236.369 288.672C235.91 288.37 235.543 287.932 235.271 287.358C235.005 286.784 234.872 286.088 234.872 285.27C234.872 284.452 235.005 283.755 235.271 283.181C235.543 282.607 235.91 282.169 236.369 281.868C236.835 281.566 237.363 281.416 237.951 281.416C238.533 281.416 239.057 281.566 239.523 281.868C239.99 282.169 240.356 282.607 240.621 283.181C240.887 283.755 241.02 284.452 241.02 285.27C241.02 286.088 240.887 286.784 240.621 287.358C240.356 287.932 239.99 288.37 239.523 288.672C239.057 288.973 238.533 289.124 237.951 289.124ZM237.951 288.166C238.346 288.166 238.691 288.058 238.985 287.843C239.286 287.627 239.52 287.304 239.685 286.874C239.857 286.443 239.943 285.908 239.943 285.27C239.943 284.631 239.857 284.096 239.685 283.666C239.52 283.235 239.286 282.912 238.985 282.697C238.691 282.481 238.346 282.374 237.951 282.374C237.557 282.374 237.209 282.481 236.907 282.697C236.606 282.912 236.369 283.235 236.197 283.666C236.032 284.096 235.949 284.631 235.949 285.27C235.949 285.908 236.032 286.443 236.197 286.874C236.369 287.304 236.606 287.627 236.907 287.843C237.209 288.058 237.557 288.166 237.951 288.166Z" fill="#066015"/>
<path d="M436.307 289.038V281.932L436.77 282.438H434.606V281.502H437.372V289.038H436.307ZM439.731 289.102C439.53 289.102 439.358 289.034 439.215 288.898C439.071 288.754 438.999 288.575 438.999 288.36C438.999 288.144 439.071 287.968 439.215 287.832C439.358 287.696 439.53 287.627 439.731 287.627C439.925 287.627 440.09 287.696 440.227 287.832C440.37 287.968 440.442 288.144 440.442 288.36C440.442 288.575 440.37 288.754 440.227 288.898C440.09 289.034 439.925 289.102 439.731 289.102ZM444.504 289.124C443.894 289.124 443.367 289.034 442.922 288.855C442.477 288.675 442.132 288.421 441.888 288.09C441.644 287.753 441.522 287.358 441.522 286.906C441.522 286.461 441.637 286.084 441.867 285.776C442.103 285.46 442.444 285.223 442.889 285.065C443.334 284.9 443.873 284.818 444.504 284.818C445.136 284.818 445.674 284.9 446.119 285.065C446.571 285.223 446.916 285.46 447.153 285.776C447.389 286.092 447.508 286.468 447.508 286.906C447.508 287.358 447.386 287.753 447.142 288.09C446.898 288.421 446.55 288.675 446.098 288.855C445.645 289.034 445.114 289.124 444.504 289.124ZM444.504 288.252C445.107 288.252 445.577 288.13 445.915 287.886C446.259 287.635 446.431 287.297 446.431 286.874C446.431 286.458 446.259 286.131 445.915 285.894C445.577 285.65 445.107 285.528 444.504 285.528C443.909 285.528 443.442 285.65 443.105 285.894C442.767 286.131 442.599 286.458 442.599 286.874C442.599 287.297 442.767 287.635 443.105 287.886C443.442 288.13 443.909 288.252 444.504 288.252ZM444.504 284.71C445.028 284.71 445.437 284.602 445.732 284.387C446.033 284.172 446.184 283.877 446.184 283.504C446.184 283.124 446.029 282.826 445.721 282.611C445.412 282.395 445.007 282.288 444.504 282.288C444.002 282.288 443.6 282.395 443.298 282.611C443.004 282.826 442.857 283.124 442.857 283.504C442.857 283.877 443.001 284.172 443.288 284.387C443.582 284.602 443.987 284.71 444.504 284.71ZM444.504 285.399C443.93 285.399 443.442 285.324 443.04 285.173C442.638 285.015 442.33 284.792 442.114 284.505C441.899 284.211 441.791 283.863 441.791 283.461C441.791 283.038 441.903 282.675 442.125 282.374C442.355 282.065 442.674 281.828 443.083 281.663C443.492 281.498 443.966 281.416 444.504 281.416C445.05 281.416 445.527 281.498 445.936 281.663C446.345 281.828 446.665 282.065 446.894 282.374C447.124 282.675 447.239 283.038 447.239 283.461C447.239 283.863 447.131 284.211 446.916 284.505C446.7 284.792 446.388 285.015 445.979 285.173C445.57 285.324 445.078 285.399 444.504 285.399ZM451.573 289.124C450.984 289.124 450.457 288.973 449.99 288.672C449.531 288.37 449.165 287.932 448.892 287.358C448.626 286.784 448.494 286.088 448.494 285.27C448.494 284.452 448.626 283.755 448.892 283.181C449.165 282.607 449.531 282.169 449.99 281.868C450.457 281.566 450.984 281.416 451.573 281.416C452.154 281.416 452.678 281.566 453.144 281.868C453.611 282.169 453.977 282.607 454.243 283.181C454.508 283.755 454.641 284.452 454.641 285.27C454.641 286.088 454.508 286.784 454.243 287.358C453.977 287.932 453.611 288.37 453.144 288.672C452.678 288.973 452.154 289.124 451.573 289.124ZM451.573 288.166C451.967 288.166 452.312 288.058 452.606 287.843C452.908 287.627 453.141 287.304 453.306 286.874C453.478 286.443 453.564 285.908 453.564 285.27C453.564 284.631 453.478 284.096 453.306 283.666C453.141 283.235 452.908 282.912 452.606 282.697C452.312 282.481 451.967 282.374 451.573 282.374C451.178 282.374 450.83 282.481 450.528 282.697C450.227 282.912 449.99 283.235 449.818 283.666C449.653 284.096 449.57 284.631 449.57 285.27C449.57 285.908 449.653 286.443 449.818 286.874C449.99 287.304 450.227 287.627 450.528 287.843C450.83 288.058 451.178 288.166 451.573 288.166ZM458.753 289.124C458.165 289.124 457.637 288.973 457.171 288.672C456.711 288.37 456.345 287.932 456.073 287.358C455.807 286.784 455.674 286.088 455.674 285.27C455.674 284.452 455.807 283.755 456.073 283.181C456.345 282.607 456.711 282.169 457.171 281.868C457.637 281.566 458.165 281.416 458.753 281.416C459.335 281.416 459.859 281.566 460.325 281.868C460.792 282.169 461.158 282.607 461.423 283.181C461.689 283.755 461.822 284.452 461.822 285.27C461.822 286.088 461.689 286.784 461.423 287.358C461.158 287.932 460.792 288.37 460.325 288.672C459.859 288.973 459.335 289.124 458.753 289.124ZM458.753 288.166C459.148 288.166 459.493 288.058 459.787 287.843C460.088 287.627 460.322 287.304 460.487 286.874C460.659 286.443 460.745 285.908 460.745 285.27C460.745 284.631 460.659 284.096 460.487 283.666C460.322 283.235 460.088 282.912 459.787 282.697C459.493 282.481 459.148 282.374 458.753 282.374C458.359 282.374 458.01 282.481 457.709 282.697C457.408 282.912 457.171 283.235 456.998 283.666C456.833 284.096 456.751 284.631 456.751 285.27C456.751 285.908 456.833 286.443 456.998 286.874C457.171 287.304 457.408 287.627 457.709 287.843C458.01 288.058 458.359 288.166 458.753 288.166Z" fill="#9E9E9E"/>
<rect x="1.46875" y="359.059" width="667.197" height="17.0649" fill="#565656"/>
<rect x="1.46875" y="359.059" width="588.914" height="17.0649" fill="#9E9E9E"/>
<path d="M194.345 105.148V94.1781H195.912V105.148H194.345ZM186.478 105.148V94.1781H188.045V105.148H186.478ZM187.888 100.259V98.8954H194.486V100.259H187.888ZM202.534 105.242C201.698 105.242 200.956 105.06 200.308 104.694C199.661 104.328 199.149 103.827 198.773 103.189C198.396 102.542 198.208 101.81 198.208 100.995C198.208 100.17 198.396 99.4386 198.773 98.8013C199.149 98.164 199.661 97.6677 200.308 97.3125C200.956 96.9468 201.698 96.764 202.534 96.764C203.359 96.764 204.096 96.9468 204.744 97.3125C205.402 97.6677 205.914 98.164 206.279 98.8013C206.656 99.4282 206.844 100.16 206.844 100.995C206.844 101.821 206.656 102.552 206.279 103.189C205.914 103.827 205.402 104.328 204.744 104.694C204.096 105.06 203.359 105.242 202.534 105.242ZM202.534 103.926C203.067 103.926 203.542 103.806 203.96 103.566C204.388 103.325 204.723 102.986 204.963 102.547C205.203 102.098 205.323 101.58 205.323 100.995C205.323 100.4 205.203 99.8879 204.963 99.4595C204.723 99.0207 204.388 98.6812 203.96 98.4409C203.542 98.2006 203.067 98.0804 202.534 98.0804C202.001 98.0804 201.526 98.2006 201.108 98.4409C200.69 98.6812 200.355 99.0207 200.105 99.4595C199.854 99.8879 199.729 100.4 199.729 100.995C199.729 101.58 199.854 102.098 200.105 102.547C200.355 102.986 200.69 103.325 201.108 103.566C201.526 103.806 202.001 103.926 202.534 103.926ZM210.45 105.148L207.363 96.8423H208.789L211.531 104.365H210.857L213.71 96.8423H214.979L217.769 104.365H217.11L219.916 96.8423H221.264L218.161 105.148H216.719L214.101 98.2841H214.54L211.892 105.148H210.45ZM226.999 105.148V96.8423H228.441V99.0521L228.206 98.4879C228.467 97.9446 228.869 97.5214 229.412 97.2185C229.956 96.9155 230.588 96.764 231.309 96.764C232.103 96.764 232.787 96.9625 233.362 97.3595C233.936 97.7461 234.313 98.3364 234.49 99.1304L233.879 98.8797C234.13 98.2424 234.568 97.7304 235.195 97.3438C235.822 96.9573 236.554 96.764 237.389 96.764C238.058 96.764 238.648 96.8946 239.16 97.1558C239.672 97.417 240.069 97.814 240.351 98.3468C240.644 98.8797 240.79 99.5536 240.79 100.369V105.148H239.286V100.541C239.286 99.7364 239.098 99.1304 238.722 98.723C238.345 98.3155 237.818 98.1118 237.139 98.1118C236.637 98.1118 236.198 98.2162 235.822 98.4252C235.446 98.6342 235.154 98.9424 234.945 99.3498C234.746 99.7573 234.647 100.264 234.647 100.87V105.148H233.142V100.541C233.142 99.7364 232.954 99.1304 232.578 98.723C232.212 98.3155 231.685 98.1118 230.995 98.1118C230.504 98.1118 230.071 98.2162 229.695 98.4252C229.318 98.6342 229.026 98.9424 228.817 99.3498C228.608 99.7573 228.503 100.264 228.503 100.87V105.148H226.999ZM248.715 105.148V103.393L248.636 103.064V100.071C248.636 99.4334 248.448 98.9424 248.072 98.5976C247.706 98.2424 247.153 98.0647 246.411 98.0647C245.92 98.0647 245.439 98.1483 244.969 98.3155C244.499 98.4722 244.102 98.6864 243.778 98.958L243.151 97.8297C243.579 97.4849 244.091 97.2237 244.687 97.0461C245.293 96.858 245.925 96.764 246.583 96.764C247.722 96.764 248.6 97.0408 249.216 97.5946C249.833 98.1483 250.141 98.9946 250.141 100.133V105.148H248.715ZM245.988 105.242C245.371 105.242 244.828 105.138 244.358 104.929C243.898 104.72 243.543 104.433 243.292 104.067C243.041 103.691 242.916 103.268 242.916 102.798C242.916 102.348 243.02 101.941 243.229 101.575C243.449 101.21 243.799 100.917 244.279 100.698C244.77 100.478 245.429 100.369 246.254 100.369H248.887V101.45H246.317C245.565 101.45 245.058 101.575 244.797 101.826C244.535 102.077 244.405 102.38 244.405 102.735C244.405 103.142 244.567 103.472 244.891 103.722C245.215 103.963 245.664 104.083 246.238 104.083C246.803 104.083 247.294 103.957 247.712 103.707C248.14 103.456 248.448 103.09 248.636 102.61L248.934 103.644C248.735 104.135 248.385 104.527 247.884 104.819C247.382 105.101 246.75 105.242 245.988 105.242ZM252.925 105.148V96.8423H254.367V99.0834L254.132 98.4879C254.403 97.9446 254.821 97.5214 255.385 97.2185C255.95 96.9155 256.608 96.764 257.36 96.764C258.039 96.764 258.635 96.8946 259.147 97.1558C259.669 97.417 260.077 97.814 260.369 98.3468C260.662 98.8797 260.808 99.5536 260.808 100.369V105.148H259.303V100.541C259.303 99.7364 259.105 99.1304 258.708 98.723C258.321 98.3155 257.773 98.1118 257.062 98.1118C256.529 98.1118 256.065 98.2162 255.668 98.4252C255.27 98.6342 254.962 98.9424 254.743 99.3498C254.534 99.7573 254.429 100.264 254.429 100.87V105.148H252.925ZM263.692 108.283C263.295 108.283 262.909 108.215 262.533 108.079C262.157 107.954 261.833 107.766 261.561 107.515L262.204 106.387C262.413 106.585 262.642 106.737 262.893 106.841C263.144 106.945 263.41 106.998 263.692 106.998C264.058 106.998 264.361 106.904 264.601 106.716C264.842 106.528 265.066 106.193 265.275 105.713L265.793 104.569L265.949 104.381L269.209 96.8423H270.682L266.654 105.979C266.414 106.564 266.143 107.024 265.84 107.358C265.547 107.693 265.223 107.928 264.868 108.063C264.513 108.21 264.121 108.283 263.692 108.283ZM265.667 105.415L261.875 96.8423H263.442L266.67 104.239L265.667 105.415ZM280.699 105.242C280.009 105.242 279.377 105.086 278.803 104.772C278.238 104.448 277.784 103.973 277.439 103.346C277.105 102.719 276.938 101.936 276.938 100.995C276.938 100.055 277.1 99.2715 277.423 98.6446C277.758 98.0177 278.207 97.5476 278.771 97.2341C279.346 96.9207 279.988 96.764 280.699 96.764C281.514 96.764 282.235 96.9416 282.862 97.2968C283.488 97.652 283.985 98.1483 284.35 98.7856C284.716 99.4125 284.899 100.149 284.899 100.995C284.899 101.842 284.716 102.583 284.35 103.221C283.985 103.858 283.488 104.354 282.862 104.71C282.235 105.065 281.514 105.242 280.699 105.242ZM276.295 108.189V96.8423H277.737V99.0834L277.643 101.011L277.8 102.939V108.189H276.295ZM280.573 103.926C281.106 103.926 281.582 103.806 282 103.566C282.428 103.325 282.762 102.986 283.003 102.547C283.253 102.098 283.379 101.58 283.379 100.995C283.379 100.4 283.253 99.8879 283.003 99.4595C282.762 99.0207 282.428 98.6812 282 98.4409C281.582 98.2006 281.106 98.0804 280.573 98.0804C280.051 98.0804 279.576 98.2006 279.147 98.4409C278.729 98.6812 278.395 99.0207 278.144 99.4595C277.904 99.8879 277.784 100.4 277.784 100.995C277.784 101.58 277.904 102.098 278.144 102.547C278.395 102.986 278.729 103.325 279.147 103.566C279.576 103.806 280.051 103.926 280.573 103.926ZM286.978 105.148V93.5199H288.482V105.148H286.978ZM296.511 105.148V103.393L296.432 103.064V100.071C296.432 99.4334 296.244 98.9424 295.868 98.5976C295.503 98.2424 294.949 98.0647 294.207 98.0647C293.716 98.0647 293.235 98.1483 292.765 98.3155C292.295 98.4722 291.898 98.6864 291.574 98.958L290.947 97.8297C291.376 97.4849 291.888 97.2237 292.483 97.0461C293.089 96.858 293.721 96.764 294.379 96.764C295.518 96.764 296.396 97.0408 297.012 97.5946C297.629 98.1483 297.937 98.9946 297.937 100.133V105.148H296.511ZM293.784 105.242C293.167 105.242 292.624 105.138 292.154 104.929C291.694 104.72 291.339 104.433 291.088 104.067C290.838 103.691 290.712 103.268 290.712 102.798C290.712 102.348 290.817 101.941 291.026 101.575C291.245 101.21 291.595 100.917 292.076 100.698C292.567 100.478 293.225 100.369 294.05 100.369H296.683V101.45H294.113C293.361 101.45 292.854 101.575 292.593 101.826C292.332 102.077 292.201 102.38 292.201 102.735C292.201 103.142 292.363 103.472 292.687 103.722C293.011 103.963 293.46 104.083 294.035 104.083C294.599 104.083 295.09 103.957 295.508 103.707C295.936 103.456 296.244 103.09 296.432 102.61L296.73 103.644C296.532 104.135 296.182 104.527 295.68 104.819C295.179 105.101 294.547 105.242 293.784 105.242ZM303.103 105.242C302.414 105.242 301.755 105.148 301.129 104.96C300.512 104.772 300.026 104.542 299.671 104.271L300.298 103.08C300.653 103.32 301.092 103.524 301.614 103.691C302.137 103.858 302.67 103.942 303.213 103.942C303.913 103.942 304.414 103.842 304.717 103.644C305.031 103.445 305.188 103.169 305.188 102.813C305.188 102.552 305.094 102.348 304.906 102.202C304.717 102.056 304.467 101.946 304.153 101.873C303.85 101.8 303.511 101.737 303.135 101.685C302.758 101.622 302.382 101.549 302.006 101.466C301.63 101.372 301.285 101.246 300.972 101.089C300.658 100.922 300.408 100.698 300.22 100.416C300.032 100.123 299.938 99.7364 299.938 99.2558C299.938 98.7543 300.079 98.3155 300.361 97.9394C300.643 97.5632 301.04 97.2759 301.552 97.0774C302.074 96.8685 302.691 96.764 303.401 96.764C303.944 96.764 304.493 96.8319 305.047 96.9677C305.611 97.0931 306.07 97.2759 306.426 97.5162L305.783 98.7073C305.407 98.4565 305.015 98.2841 304.608 98.1901C304.2 98.0961 303.793 98.0491 303.385 98.0491C302.727 98.0491 302.236 98.1588 301.912 98.3782C301.588 98.5871 301.426 98.8588 301.426 99.1931C301.426 99.4752 301.52 99.6946 301.708 99.8513C301.907 99.9976 302.158 100.113 302.461 100.196C302.774 100.28 303.119 100.353 303.495 100.416C303.871 100.468 304.247 100.541 304.623 100.635C305 100.719 305.339 100.839 305.642 100.995C305.956 101.152 306.206 101.372 306.394 101.654C306.593 101.936 306.692 102.312 306.692 102.782C306.692 103.283 306.546 103.717 306.253 104.083C305.961 104.448 305.548 104.736 305.015 104.945C304.482 105.143 303.845 105.242 303.103 105.242ZM311.425 105.242C310.589 105.242 309.941 105.018 309.481 104.569C309.022 104.119 308.792 103.477 308.792 102.641V95.0244H310.296V102.578C310.296 103.028 310.406 103.372 310.625 103.613C310.855 103.853 311.179 103.973 311.597 103.973C312.067 103.973 312.459 103.842 312.772 103.581L313.243 104.663C313.013 104.861 312.736 105.007 312.412 105.101C312.099 105.195 311.769 105.242 311.425 105.242ZM307.381 98.0804V96.8423H312.678V98.0804H307.381ZM315.062 105.148V96.8423H316.566V105.148H315.062ZM315.814 95.2438C315.521 95.2438 315.276 95.1498 315.077 94.9617C314.889 94.7736 314.795 94.5438 314.795 94.2721C314.795 93.9901 314.889 93.755 315.077 93.5669C315.276 93.3788 315.521 93.2848 315.814 93.2848C316.106 93.2848 316.347 93.3788 316.535 93.5669C316.733 93.7445 316.832 93.9692 316.832 94.2408C316.832 94.5229 316.738 94.7632 316.55 94.9617C316.362 95.1498 316.117 95.2438 315.814 95.2438ZM323.059 105.242C322.213 105.242 321.455 105.06 320.786 104.694C320.128 104.328 319.611 103.827 319.235 103.189C318.859 102.552 318.671 101.821 318.671 100.995C318.671 100.17 318.859 99.4386 319.235 98.8013C319.611 98.164 320.128 97.6677 320.786 97.3125C321.455 96.9468 322.213 96.764 323.059 96.764C323.811 96.764 324.48 96.9155 325.065 97.2185C325.66 97.511 326.12 97.9498 326.444 98.5349L325.3 99.2715C325.028 98.864 324.694 98.5662 324.297 98.3782C323.91 98.1797 323.492 98.0804 323.043 98.0804C322.5 98.0804 322.014 98.2006 321.586 98.4409C321.157 98.6812 320.818 99.0207 320.567 99.4595C320.316 99.8879 320.191 100.4 320.191 100.995C320.191 101.591 320.316 102.108 320.567 102.547C320.818 102.986 321.157 103.325 321.586 103.566C322.014 103.806 322.5 103.926 323.043 103.926C323.492 103.926 323.91 103.832 324.297 103.644C324.694 103.445 325.028 103.142 325.3 102.735L326.444 103.456C326.12 104.031 325.66 104.475 325.065 104.788C324.48 105.091 323.811 105.242 323.059 105.242ZM337.004 105.242C336.294 105.242 335.651 105.086 335.077 104.772C334.513 104.448 334.063 103.973 333.729 103.346C333.405 102.719 333.243 101.936 333.243 100.995C333.243 100.055 333.41 99.2715 333.745 98.6446C334.089 98.0177 334.544 97.5476 335.108 97.2341C335.683 96.9207 336.315 96.764 337.004 96.764C337.819 96.764 338.54 96.9416 339.167 97.2968C339.794 97.652 340.29 98.1483 340.656 98.7856C341.022 99.4125 341.204 100.149 341.204 100.995C341.204 101.842 341.022 102.583 340.656 103.221C340.29 103.858 339.794 104.354 339.167 104.71C338.54 105.065 337.819 105.242 337.004 105.242ZM332.601 105.148V93.5199H334.105V99.0521L333.948 100.98L334.042 102.907V105.148H332.601ZM336.879 103.926C337.412 103.926 337.887 103.806 338.305 103.566C338.734 103.325 339.068 102.986 339.308 102.547C339.559 102.098 339.684 101.58 339.684 100.995C339.684 100.4 339.559 99.8879 339.308 99.4595C339.068 99.0207 338.734 98.6812 338.305 98.4409C337.887 98.2006 337.412 98.0804 336.879 98.0804C336.357 98.0804 335.881 98.2006 335.453 98.4409C335.035 98.6812 334.701 99.0207 334.45 99.4595C334.21 99.8879 334.089 100.4 334.089 100.995C334.089 101.58 334.21 102.098 334.45 102.547C334.701 102.986 335.035 103.325 335.453 103.566C335.881 103.806 336.357 103.926 336.879 103.926ZM346.841 105.242C346.005 105.242 345.263 105.06 344.615 104.694C343.968 104.328 343.456 103.827 343.079 103.189C342.703 102.542 342.515 101.81 342.515 100.995C342.515 100.17 342.703 99.4386 343.079 98.8013C343.456 98.164 343.968 97.6677 344.615 97.3125C345.263 96.9468 346.005 96.764 346.841 96.764C347.666 96.764 348.403 96.9468 349.05 97.3125C349.709 97.6677 350.221 98.164 350.586 98.8013C350.962 99.4282 351.15 100.16 351.15 100.995C351.15 101.821 350.962 102.552 350.586 103.189C350.221 103.827 349.709 104.328 349.05 104.694C348.403 105.06 347.666 105.242 346.841 105.242ZM346.841 103.926C347.374 103.926 347.849 103.806 348.267 103.566C348.695 103.325 349.03 102.986 349.27 102.547C349.51 102.098 349.63 101.58 349.63 100.995C349.63 100.4 349.51 99.8879 349.27 99.4595C349.03 99.0207 348.695 98.6812 348.267 98.4409C347.849 98.2006 347.374 98.0804 346.841 98.0804C346.308 98.0804 345.832 98.2006 345.415 98.4409C344.997 98.6812 344.662 99.0207 344.412 99.4595C344.161 99.8879 344.035 100.4 344.035 100.995C344.035 101.58 344.161 102.098 344.412 102.547C344.662 102.986 344.997 103.325 345.415 103.566C345.832 103.806 346.308 103.926 346.841 103.926ZM356.083 105.242C355.248 105.242 354.6 105.018 354.14 104.569C353.68 104.119 353.451 103.477 353.451 102.641V95.0244H354.955V102.578C354.955 103.028 355.065 103.372 355.284 103.613C355.514 103.853 355.838 103.973 356.256 103.973C356.726 103.973 357.118 103.842 357.431 103.581L357.901 104.663C357.672 104.861 357.395 105.007 357.071 105.101C356.757 105.195 356.428 105.242 356.083 105.242ZM352.04 98.0804V96.8423H357.337V98.0804H352.04ZM362.374 105.242C361.538 105.242 360.89 105.018 360.43 104.569C359.971 104.119 359.741 103.477 359.741 102.641V95.0244H361.245V102.578C361.245 103.028 361.355 103.372 361.574 103.613C361.804 103.853 362.128 103.973 362.546 103.973C363.016 103.973 363.408 103.842 363.721 103.581L364.192 104.663C363.962 104.861 363.685 105.007 363.361 105.101C363.048 105.195 362.718 105.242 362.374 105.242ZM358.33 98.0804V96.8423H363.627V98.0804H358.33ZM366.01 105.148V93.5199H367.515V105.148H366.01ZM374.086 105.242C373.198 105.242 372.414 105.06 371.735 104.694C371.067 104.328 370.544 103.827 370.168 103.189C369.802 102.552 369.62 101.821 369.62 100.995C369.62 100.17 369.797 99.4386 370.153 98.8013C370.518 98.164 371.014 97.6677 371.641 97.3125C372.279 96.9468 372.994 96.764 373.788 96.764C374.593 96.764 375.303 96.9416 375.92 97.2968C376.536 97.652 377.017 98.1535 377.362 98.8013C377.717 99.4386 377.894 100.186 377.894 101.042C377.894 101.105 377.889 101.178 377.879 101.262C377.879 101.345 377.874 101.424 377.863 101.497H370.795V100.416H377.079L376.468 100.792C376.479 100.259 376.369 99.7834 376.139 99.3655C375.909 98.9476 375.591 98.6237 375.183 98.3939C374.786 98.1535 374.321 98.0334 373.788 98.0334C373.266 98.0334 372.801 98.1535 372.394 98.3939C371.986 98.6237 371.667 98.9528 371.438 99.3812C371.208 99.7991 371.093 100.28 371.093 100.823V101.074C371.093 101.627 371.218 102.124 371.469 102.563C371.73 102.991 372.091 103.325 372.55 103.566C373.01 103.806 373.538 103.926 374.133 103.926C374.624 103.926 375.068 103.842 375.465 103.675C375.873 103.508 376.228 103.257 376.531 102.923L377.362 103.895C376.985 104.333 376.515 104.668 375.951 104.898C375.397 105.128 374.776 105.242 374.086 105.242ZM382.366 105.242C381.676 105.242 381.018 105.148 380.391 104.96C379.775 104.772 379.289 104.542 378.934 104.271L379.56 103.08C379.916 103.32 380.354 103.524 380.877 103.691C381.399 103.858 381.932 103.942 382.475 103.942C383.175 103.942 383.677 103.842 383.98 103.644C384.293 103.445 384.45 103.169 384.45 102.813C384.45 102.552 384.356 102.348 384.168 102.202C383.98 102.056 383.729 101.946 383.416 101.873C383.113 101.8 382.773 101.737 382.397 101.685C382.021 101.622 381.645 101.549 381.269 101.466C380.893 101.372 380.548 101.246 380.234 101.089C379.921 100.922 379.67 100.698 379.482 100.416C379.294 100.123 379.2 99.7364 379.2 99.2558C379.2 98.7543 379.341 98.3155 379.623 97.9394C379.905 97.5632 380.302 97.2759 380.814 97.0774C381.337 96.8685 381.953 96.764 382.663 96.764C383.207 96.764 383.755 96.8319 384.309 96.9677C384.873 97.0931 385.333 97.2759 385.688 97.5162L385.046 98.7073C384.669 98.4565 384.278 98.2841 383.87 98.1901C383.463 98.0961 383.055 98.0491 382.648 98.0491C381.99 98.0491 381.499 98.1588 381.175 98.3782C380.851 98.5871 380.689 98.8588 380.689 99.1931C380.689 99.4752 380.783 99.6946 380.971 99.8513C381.169 99.9976 381.42 100.113 381.723 100.196C382.037 100.28 382.381 100.353 382.757 100.416C383.134 100.468 383.51 100.541 383.886 100.635C384.262 100.719 384.602 100.839 384.905 100.995C385.218 101.152 385.469 101.372 385.657 101.654C385.855 101.936 385.955 102.312 385.955 102.782C385.955 103.283 385.808 103.717 385.516 104.083C385.223 104.448 384.811 104.736 384.278 104.945C383.745 105.143 383.107 105.242 382.366 105.242ZM397.2 105.148V103.393L397.121 103.064V100.071C397.121 99.4334 396.933 98.9424 396.557 98.5976C396.191 98.2424 395.638 98.0647 394.896 98.0647C394.405 98.0647 393.924 98.1483 393.454 98.3155C392.984 98.4722 392.587 98.6864 392.263 98.958L391.636 97.8297C392.064 97.4849 392.576 97.2237 393.172 97.0461C393.778 96.858 394.41 96.764 395.068 96.764C396.207 96.764 397.085 97.0408 397.701 97.5946C398.318 98.1483 398.626 98.9946 398.626 100.133V105.148H397.2ZM394.473 105.242C393.856 105.242 393.313 105.138 392.843 104.929C392.383 104.72 392.028 104.433 391.777 104.067C391.526 103.691 391.401 103.268 391.401 102.798C391.401 102.348 391.506 101.941 391.714 101.575C391.934 101.21 392.284 100.917 392.764 100.698C393.256 100.478 393.914 100.369 394.739 100.369H397.372V101.45H394.802C394.05 101.45 393.543 101.575 393.282 101.826C393.02 102.077 392.89 102.38 392.89 102.735C392.89 103.142 393.052 103.472 393.376 103.722C393.7 103.963 394.149 104.083 394.723 104.083C395.288 104.083 395.779 103.957 396.197 103.707C396.625 103.456 396.933 103.09 397.121 102.61L397.419 103.644C397.221 104.135 396.871 104.527 396.369 104.819C395.868 105.101 395.235 105.242 394.473 105.242ZM401.41 105.148V96.8423H402.852V99.0991L402.711 98.5349C402.941 97.9603 403.327 97.5214 403.87 97.2185C404.414 96.9155 405.082 96.764 405.876 96.764V98.2215C405.814 98.211 405.751 98.2058 405.688 98.2058C405.636 98.2058 405.584 98.2058 405.532 98.2058C404.727 98.2058 404.09 98.4461 403.62 98.9267C403.15 99.4073 402.914 100.102 402.914 101.011V105.148H401.41ZM411.353 105.242C410.465 105.242 409.681 105.06 409.002 104.694C408.333 104.328 407.811 103.827 407.435 103.189C407.069 102.552 406.886 101.821 406.886 100.995C406.886 100.17 407.064 99.4386 407.419 98.8013C407.785 98.164 408.281 97.6677 408.908 97.3125C409.545 96.9468 410.261 96.764 411.055 96.764C411.86 96.764 412.57 96.9416 413.186 97.2968C413.803 97.652 414.283 98.1535 414.628 98.8013C414.983 99.4386 415.161 100.186 415.161 101.042C415.161 101.105 415.156 101.178 415.145 101.262C415.145 101.345 415.14 101.424 415.13 101.497H408.062V100.416H414.346L413.735 100.792C413.745 100.259 413.636 99.7834 413.406 99.3655C413.176 98.9476 412.857 98.6237 412.45 98.3939C412.053 98.1535 411.588 98.0334 411.055 98.0334C410.533 98.0334 410.068 98.1535 409.66 98.3939C409.253 98.6237 408.934 98.9528 408.704 99.3812C408.474 99.7991 408.359 100.28 408.359 100.823V101.074C408.359 101.627 408.485 102.124 408.736 102.563C408.997 102.991 409.357 103.325 409.817 103.566C410.277 103.806 410.804 103.926 411.4 103.926C411.891 103.926 412.335 103.842 412.732 103.675C413.139 103.508 413.495 103.257 413.798 102.923L414.628 103.895C414.252 104.333 413.782 104.668 413.218 104.898C412.664 105.128 412.042 105.242 411.353 105.242ZM425.863 105.242C425.152 105.242 424.51 105.086 423.935 104.772C423.371 104.448 422.922 103.973 422.587 103.346C422.263 102.719 422.102 101.936 422.102 100.995C422.102 100.055 422.269 99.2715 422.603 98.6446C422.948 98.0177 423.402 97.5476 423.966 97.2341C424.541 96.9207 425.173 96.764 425.863 96.764C426.678 96.764 427.399 96.9416 428.026 97.2968C428.652 97.652 429.149 98.1483 429.514 98.7856C429.88 99.4125 430.063 100.149 430.063 100.995C430.063 101.842 429.88 102.583 429.514 103.221C429.149 103.858 428.652 104.354 428.026 104.71C427.399 105.065 426.678 105.242 425.863 105.242ZM421.459 105.148V93.5199H422.963V99.0521L422.807 100.98L422.901 102.907V105.148H421.459ZM425.737 103.926C426.27 103.926 426.746 103.806 427.164 103.566C427.592 103.325 427.926 102.986 428.167 102.547C428.417 102.098 428.543 101.58 428.543 100.995C428.543 100.4 428.417 99.8879 428.167 99.4595C427.926 99.0207 427.592 98.6812 427.164 98.4409C426.746 98.2006 426.27 98.0804 425.737 98.0804C425.215 98.0804 424.74 98.2006 424.311 98.4409C423.893 98.6812 423.559 99.0207 423.308 99.4595C423.068 99.8879 422.948 100.4 422.948 100.995C422.948 101.58 423.068 102.098 423.308 102.547C423.559 102.986 423.893 103.325 424.311 103.566C424.74 103.806 425.215 103.926 425.737 103.926ZM435.699 105.242C434.863 105.242 434.121 105.06 433.474 104.694C432.826 104.328 432.314 103.827 431.938 103.189C431.562 102.542 431.374 101.81 431.374 100.995C431.374 100.17 431.562 99.4386 431.938 98.8013C432.314 98.164 432.826 97.6677 433.474 97.3125C434.121 96.9468 434.863 96.764 435.699 96.764C436.524 96.764 437.261 96.9468 437.909 97.3125C438.567 97.6677 439.079 98.164 439.445 98.8013C439.821 99.4282 440.009 100.16 440.009 100.995C440.009 101.821 439.821 102.552 439.445 103.189C439.079 103.827 438.567 104.328 437.909 104.694C437.261 105.06 436.524 105.242 435.699 105.242ZM435.699 103.926C436.232 103.926 436.707 103.806 437.125 103.566C437.554 103.325 437.888 102.986 438.128 102.547C438.369 102.098 438.489 101.58 438.489 100.995C438.489 100.4 438.369 99.8879 438.128 99.4595C437.888 99.0207 437.554 98.6812 437.125 98.4409C436.707 98.2006 436.232 98.0804 435.699 98.0804C435.166 98.0804 434.691 98.2006 434.273 98.4409C433.855 98.6812 433.521 99.0207 433.27 99.4595C433.019 99.8879 432.894 100.4 432.894 100.995C432.894 101.58 433.019 102.098 433.27 102.547C433.521 102.986 433.855 103.325 434.273 103.566C434.691 103.806 435.166 103.926 435.699 103.926ZM445.584 105.242C444.874 105.242 444.247 105.112 443.704 104.851C443.171 104.589 442.753 104.192 442.45 103.66C442.157 103.116 442.011 102.437 442.011 101.622V96.8423H443.516V101.45C443.516 102.265 443.709 102.876 444.096 103.283C444.493 103.691 445.046 103.895 445.757 103.895C446.279 103.895 446.734 103.79 447.12 103.581C447.507 103.362 447.805 103.048 448.014 102.641C448.222 102.223 448.327 101.722 448.327 101.136V96.8423H449.831V105.148H448.405V102.907L448.64 103.503C448.369 104.057 447.961 104.485 447.418 104.788C446.875 105.091 446.263 105.242 445.584 105.242ZM456.332 108.283C455.569 108.283 454.827 108.173 454.106 107.954C453.396 107.745 452.816 107.442 452.367 107.045L453.087 105.885C453.474 106.219 453.949 106.481 454.514 106.669C455.078 106.867 455.668 106.966 456.285 106.966C457.267 106.966 457.988 106.737 458.447 106.277C458.907 105.817 459.137 105.117 459.137 104.177V102.422L459.294 100.776L459.215 99.1148V96.8423H460.641V104.02C460.641 105.483 460.276 106.559 459.544 107.248C458.813 107.938 457.742 108.283 456.332 108.283ZM456.143 104.804C455.339 104.804 454.618 104.636 453.981 104.302C453.354 103.957 452.852 103.482 452.476 102.876C452.111 102.27 451.928 101.57 451.928 100.776C451.928 99.9715 452.111 99.2715 452.476 98.6759C452.852 98.07 453.354 97.5998 453.981 97.2655C454.618 96.9311 455.339 96.764 456.143 96.764C456.854 96.764 457.502 96.9102 458.087 97.2028C458.672 97.4849 459.137 97.9237 459.482 98.5192C459.837 99.1148 460.014 99.867 460.014 100.776C460.014 101.675 459.837 102.422 459.482 103.017C459.137 103.613 458.672 104.062 458.087 104.365C457.502 104.657 456.854 104.804 456.143 104.804ZM456.316 103.487C456.87 103.487 457.361 103.372 457.789 103.142C458.217 102.913 458.552 102.594 458.792 102.186C459.043 101.779 459.168 101.309 459.168 100.776C459.168 100.243 459.043 99.773 458.792 99.3655C458.552 98.958 458.217 98.6446 457.789 98.4252C457.361 98.1953 456.87 98.0804 456.316 98.0804C455.762 98.0804 455.266 98.1953 454.827 98.4252C454.399 98.6446 454.059 98.958 453.808 99.3655C453.568 99.773 453.448 100.243 453.448 100.776C453.448 101.309 453.568 101.779 453.808 102.186C454.059 102.594 454.399 102.913 454.827 103.142C455.266 103.372 455.762 103.487 456.316 103.487ZM463.516 105.148V93.5199H465.02V99.0834L464.723 98.4879C464.994 97.9446 465.412 97.5214 465.976 97.2185C466.541 96.9155 467.199 96.764 467.951 96.764C468.63 96.764 469.226 96.8946 469.738 97.1558C470.26 97.417 470.668 97.814 470.96 98.3468C471.253 98.8797 471.399 99.5536 471.399 100.369V105.148H469.894V100.541C469.894 99.7364 469.696 99.1304 469.299 98.723C468.912 98.3155 468.364 98.1118 467.653 98.1118C467.12 98.1118 466.656 98.2162 466.259 98.4252C465.862 98.6342 465.553 98.9424 465.334 99.3498C465.125 99.7573 465.02 100.264 465.02 100.87V105.148H463.516ZM477.036 105.242C476.2 105.242 475.552 105.018 475.092 104.569C474.633 104.119 474.403 103.477 474.403 102.641V95.0244H475.907V102.578C475.907 103.028 476.017 103.372 476.236 103.613C476.466 103.853 476.79 103.973 477.208 103.973C477.678 103.973 478.07 103.842 478.383 103.581L478.853 104.663C478.624 104.861 478.347 105.007 478.023 105.101C477.709 105.195 477.38 105.242 477.036 105.242ZM472.992 98.0804V96.8423H478.289V98.0804H472.992ZM188.013 124.148L184.926 115.842H186.352L189.095 123.365H188.421L191.273 115.842H192.543L195.332 123.365H194.674L197.479 115.842H198.827L195.724 124.148H194.282L191.665 117.284H192.104L189.455 124.148H188.013ZM203.682 124.242C202.846 124.242 202.104 124.06 201.456 123.694C200.808 123.328 200.297 122.827 199.92 122.189C199.544 121.542 199.356 120.81 199.356 119.995C199.356 119.17 199.544 118.439 199.92 117.801C200.297 117.164 200.808 116.668 201.456 116.312C202.104 115.947 202.846 115.764 203.682 115.764C204.507 115.764 205.244 115.947 205.891 116.312C206.55 116.668 207.062 117.164 207.427 117.801C207.803 118.428 207.991 119.16 207.991 119.995C207.991 120.821 207.803 121.552 207.427 122.189C207.062 122.827 206.55 123.328 205.891 123.694C205.244 124.06 204.507 124.242 203.682 124.242ZM203.682 122.926C204.214 122.926 204.69 122.806 205.108 122.566C205.536 122.325 205.87 121.986 206.111 121.547C206.351 121.098 206.471 120.58 206.471 119.995C206.471 119.4 206.351 118.888 206.111 118.46C205.87 118.021 205.536 117.681 205.108 117.441C204.69 117.201 204.214 117.08 203.682 117.08C203.149 117.08 202.673 117.201 202.256 117.441C201.838 117.681 201.503 118.021 201.253 118.46C201.002 118.888 200.876 119.4 200.876 119.995C200.876 120.58 201.002 121.098 201.253 121.547C201.503 121.986 201.838 122.325 202.256 122.566C202.673 122.806 203.149 122.926 203.682 122.926ZM210.072 124.148V115.842H211.514V118.099L211.373 117.535C211.603 116.96 211.989 116.521 212.533 116.218C213.076 115.915 213.745 115.764 214.539 115.764V117.221C214.476 117.211 214.413 117.206 214.351 117.206C214.298 117.206 214.246 117.206 214.194 117.206C213.389 117.206 212.752 117.446 212.282 117.927C211.812 118.407 211.577 119.102 211.577 120.011V124.148H210.072ZM216.393 124.148V112.52H217.897V124.148H216.393ZM224.202 124.242C223.398 124.242 222.677 124.065 222.039 123.71C221.413 123.354 220.916 122.858 220.551 122.221C220.185 121.583 220.002 120.842 220.002 119.995C220.002 119.149 220.185 118.413 220.551 117.786C220.916 117.148 221.413 116.652 222.039 116.297C222.677 115.942 223.398 115.764 224.202 115.764C224.902 115.764 225.534 115.921 226.098 116.234C226.663 116.548 227.112 117.018 227.446 117.645C227.791 118.271 227.963 119.055 227.963 119.995C227.963 120.936 227.796 121.719 227.462 122.346C227.138 122.973 226.694 123.448 226.13 123.772C225.566 124.086 224.923 124.242 224.202 124.242ZM224.328 122.926C224.85 122.926 225.32 122.806 225.738 122.566C226.166 122.325 226.501 121.986 226.741 121.547C226.992 121.098 227.117 120.58 227.117 119.995C227.117 119.4 226.992 118.888 226.741 118.46C226.501 118.021 226.166 117.681 225.738 117.441C225.32 117.201 224.85 117.08 224.328 117.08C223.795 117.08 223.319 117.201 222.901 117.441C222.483 117.681 222.149 118.021 221.898 118.46C221.648 118.888 221.522 119.4 221.522 119.995C221.522 120.58 221.648 121.098 221.898 121.547C222.149 121.986 222.483 122.325 222.901 122.566C223.319 122.806 223.795 122.926 224.328 122.926ZM227.164 124.148V121.907L227.258 119.98L227.101 118.052V112.52H228.606V124.148H227.164ZM233.208 124.148L230.12 115.842H231.547L234.289 123.365H233.615L236.468 115.842H237.737L240.527 123.365H239.868L242.674 115.842H244.021L240.918 124.148H239.477L236.859 117.284H237.298L234.65 124.148H233.208ZM245.548 124.148V115.842H247.053V124.148H245.548ZM246.3 114.244C246.008 114.244 245.762 114.15 245.564 113.962C245.376 113.774 245.282 113.544 245.282 113.272C245.282 112.99 245.376 112.755 245.564 112.567C245.762 112.379 246.008 112.285 246.3 112.285C246.593 112.285 246.833 112.379 247.021 112.567C247.22 112.745 247.319 112.969 247.319 113.241C247.319 113.523 247.225 113.763 247.037 113.962C246.849 114.15 246.603 114.244 246.3 114.244ZM253.357 124.242C252.553 124.242 251.832 124.065 251.195 123.71C250.568 123.354 250.072 122.858 249.706 122.221C249.34 121.583 249.157 120.842 249.157 119.995C249.157 119.149 249.34 118.413 249.706 117.786C250.072 117.148 250.568 116.652 251.195 116.297C251.832 115.942 252.553 115.764 253.357 115.764C254.057 115.764 254.689 115.921 255.254 116.234C255.818 116.548 256.267 117.018 256.601 117.645C256.946 118.271 257.119 119.055 257.119 119.995C257.119 120.936 256.951 121.719 256.617 122.346C256.293 122.973 255.849 123.448 255.285 123.772C254.721 124.086 254.078 124.242 253.357 124.242ZM253.483 122.926C254.005 122.926 254.475 122.806 254.893 122.566C255.322 122.325 255.656 121.986 255.896 121.547C256.147 121.098 256.272 120.58 256.272 119.995C256.272 119.4 256.147 118.888 255.896 118.46C255.656 118.021 255.322 117.681 254.893 117.441C254.475 117.201 254.005 117.08 253.483 117.08C252.95 117.08 252.475 117.201 252.057 117.441C251.639 117.681 251.304 118.021 251.054 118.46C250.803 118.888 250.677 119.4 250.677 119.995C250.677 120.58 250.803 121.098 251.054 121.547C251.304 121.986 251.639 122.325 252.057 122.566C252.475 122.806 252.95 122.926 253.483 122.926ZM256.319 124.148V121.907L256.413 119.98L256.257 118.052V112.52H257.761V124.148H256.319ZM264.306 124.242C263.418 124.242 262.635 124.06 261.956 123.694C261.287 123.328 260.765 122.827 260.388 122.189C260.023 121.552 259.84 120.821 259.84 119.995C259.84 119.17 260.018 118.439 260.373 117.801C260.738 117.164 261.235 116.668 261.862 116.312C262.499 115.947 263.215 115.764 264.009 115.764C264.813 115.764 265.524 115.942 266.14 116.297C266.756 116.652 267.237 117.154 267.582 117.801C267.937 118.439 268.115 119.186 268.115 120.042C268.115 120.105 268.109 120.178 268.099 120.262C268.099 120.345 268.094 120.424 268.083 120.497H261.015V119.416H267.3L266.689 119.792C266.699 119.259 266.589 118.783 266.359 118.366C266.13 117.948 265.811 117.624 265.403 117.394C265.006 117.154 264.541 117.033 264.009 117.033C263.486 117.033 263.021 117.154 262.614 117.394C262.206 117.624 261.888 117.953 261.658 118.381C261.428 118.799 261.313 119.28 261.313 119.823V120.074C261.313 120.627 261.438 121.124 261.689 121.563C261.95 121.991 262.311 122.325 262.771 122.566C263.23 122.806 263.758 122.926 264.353 122.926C264.844 122.926 265.289 122.842 265.686 122.675C266.093 122.508 266.448 122.257 266.751 121.923L267.582 122.895C267.206 123.333 266.736 123.668 266.171 123.898C265.618 124.128 264.996 124.242 264.306 124.242ZM278.111 124.242C277.223 124.242 276.439 124.06 275.76 123.694C275.092 123.328 274.569 122.827 274.193 122.189C273.827 121.552 273.645 120.821 273.645 119.995C273.645 119.17 273.822 118.439 274.177 117.801C274.543 117.164 275.039 116.668 275.666 116.312C276.304 115.947 277.019 115.764 277.813 115.764C278.618 115.764 279.328 115.942 279.945 116.297C280.561 116.652 281.042 117.154 281.387 117.801C281.742 118.439 281.919 119.186 281.919 120.042C281.919 120.105 281.914 120.178 281.904 120.262C281.904 120.345 281.899 120.424 281.888 120.497H274.82V119.416H281.104L280.493 119.792C280.504 119.259 280.394 118.783 280.164 118.366C279.934 117.948 279.616 117.624 279.208 117.394C278.811 117.154 278.346 117.033 277.813 117.033C277.291 117.033 276.826 117.154 276.419 117.394C276.011 117.624 275.692 117.953 275.463 118.381C275.233 118.799 275.118 119.28 275.118 119.823V120.074C275.118 120.627 275.243 121.124 275.494 121.563C275.755 121.991 276.116 122.325 276.575 122.566C277.035 122.806 277.563 122.926 278.158 122.926C278.649 122.926 279.093 122.842 279.49 122.675C279.898 122.508 280.253 122.257 280.556 121.923L281.387 122.895C281.01 123.333 280.54 123.668 279.976 123.898C279.422 124.128 278.801 124.242 278.111 124.242ZM286.034 124.148L282.398 115.842H283.965L287.194 123.365H286.441L289.732 115.842H291.206L287.57 124.148H286.034ZM296.079 124.242C295.191 124.242 294.407 124.06 293.728 123.694C293.059 123.328 292.537 122.827 292.161 122.189C291.795 121.552 291.612 120.821 291.612 119.995C291.612 119.17 291.79 118.439 292.145 117.801C292.511 117.164 293.007 116.668 293.634 116.312C294.271 115.947 294.987 115.764 295.781 115.764C296.585 115.764 297.296 115.942 297.912 116.297C298.529 116.652 299.009 117.154 299.354 117.801C299.709 118.439 299.887 119.186 299.887 120.042C299.887 120.105 299.882 120.178 299.871 120.262C299.871 120.345 299.866 120.424 299.856 120.497H292.788V119.416H299.072L298.461 119.792C298.471 119.259 298.362 118.783 298.132 118.366C297.902 117.948 297.583 117.624 297.176 117.394C296.779 117.154 296.314 117.033 295.781 117.033C295.259 117.033 294.794 117.154 294.386 117.394C293.979 117.624 293.66 117.953 293.43 118.381C293.2 118.799 293.085 119.28 293.085 119.823V120.074C293.085 120.627 293.211 121.124 293.461 121.563C293.723 121.991 294.083 122.325 294.543 122.566C295.003 122.806 295.53 122.926 296.126 122.926C296.617 122.926 297.061 122.842 297.458 122.675C297.865 122.508 298.221 122.257 298.524 121.923L299.354 122.895C298.978 123.333 298.508 123.668 297.944 123.898C297.39 124.128 296.768 124.242 296.079 124.242ZM301.976 124.148V115.842H303.418V118.099L303.277 117.535C303.507 116.96 303.893 116.521 304.437 116.218C304.98 115.915 305.649 115.764 306.443 115.764V117.221C306.38 117.211 306.317 117.206 306.255 117.206C306.202 117.206 306.15 117.206 306.098 117.206C305.293 117.206 304.656 117.446 304.186 117.927C303.716 118.407 303.481 119.102 303.481 120.011V124.148H301.976ZM308.734 127.283C308.337 127.283 307.95 127.215 307.574 127.079C307.198 126.954 306.874 126.766 306.602 126.515L307.245 125.387C307.454 125.585 307.684 125.737 307.935 125.841C308.185 125.945 308.452 125.998 308.734 125.998C309.1 125.998 309.403 125.904 309.643 125.716C309.883 125.528 310.108 125.193 310.317 124.713L310.834 123.569L310.991 123.381L314.25 115.842H315.724L311.696 124.979C311.456 125.564 311.184 126.024 310.881 126.358C310.588 126.693 310.264 126.928 309.909 127.063C309.554 127.21 309.162 127.283 308.734 127.283ZM310.709 124.415L306.916 115.842H308.483L311.712 123.239L310.709 124.415ZM323.719 124.242C323.029 124.242 322.371 124.148 321.744 123.96C321.127 123.772 320.642 123.542 320.286 123.271L320.913 122.08C321.268 122.32 321.707 122.524 322.23 122.691C322.752 122.858 323.285 122.942 323.828 122.942C324.528 122.942 325.03 122.842 325.333 122.644C325.646 122.445 325.803 122.169 325.803 121.813C325.803 121.552 325.709 121.348 325.521 121.202C325.333 121.056 325.082 120.946 324.769 120.873C324.466 120.8 324.126 120.737 323.75 120.685C323.374 120.622 322.998 120.549 322.622 120.466C322.245 120.372 321.901 120.246 321.587 120.089C321.274 119.922 321.023 119.698 320.835 119.416C320.647 119.123 320.553 118.736 320.553 118.256C320.553 117.754 320.694 117.315 320.976 116.939C321.258 116.563 321.655 116.276 322.167 116.077C322.689 115.868 323.306 115.764 324.016 115.764C324.56 115.764 325.108 115.832 325.662 115.968C326.226 116.093 326.686 116.276 327.041 116.516L326.398 117.707C326.022 117.457 325.631 117.284 325.223 117.19C324.816 117.096 324.408 117.049 324.001 117.049C323.342 117.049 322.851 117.159 322.527 117.378C322.204 117.587 322.042 117.859 322.042 118.193C322.042 118.475 322.136 118.695 322.324 118.851C322.522 118.998 322.773 119.113 323.076 119.196C323.389 119.28 323.734 119.353 324.11 119.416C324.486 119.468 324.863 119.541 325.239 119.635C325.615 119.719 325.954 119.839 326.257 119.995C326.571 120.152 326.822 120.372 327.01 120.654C327.208 120.936 327.307 121.312 327.307 121.782C327.307 122.283 327.161 122.717 326.869 123.083C326.576 123.448 326.163 123.736 325.631 123.945C325.098 124.143 324.46 124.242 323.719 124.242ZM332.886 124.242C331.998 124.242 331.215 124.06 330.535 123.694C329.867 123.328 329.344 122.827 328.968 122.189C328.603 121.552 328.42 120.821 328.42 119.995C328.42 119.17 328.597 118.439 328.953 117.801C329.318 117.164 329.815 116.668 330.441 116.312C331.079 115.947 331.794 115.764 332.588 115.764C333.393 115.764 334.103 115.942 334.72 116.297C335.336 116.652 335.817 117.154 336.162 117.801C336.517 118.439 336.694 119.186 336.694 120.042C336.694 120.105 336.689 120.178 336.679 120.262C336.679 120.345 336.674 120.424 336.663 120.497H329.595V119.416H335.88L335.268 119.792C335.279 119.259 335.169 118.783 334.939 118.366C334.709 117.948 334.391 117.624 333.983 117.394C333.586 117.154 333.121 117.033 332.588 117.033C332.066 117.033 331.601 117.154 331.194 117.394C330.786 117.624 330.468 117.953 330.238 118.381C330.008 118.799 329.893 119.28 329.893 119.823V120.074C329.893 120.627 330.018 121.124 330.269 121.563C330.53 121.991 330.891 122.325 331.35 122.566C331.81 122.806 332.338 122.926 332.933 122.926C333.424 122.926 333.868 122.842 334.265 122.675C334.673 122.508 335.028 122.257 335.331 121.923L336.162 122.895C335.786 123.333 335.315 123.668 334.751 123.898C334.197 124.128 333.576 124.242 332.886 124.242ZM342.404 124.242C341.558 124.242 340.8 124.06 340.131 123.694C339.473 123.328 338.956 122.827 338.58 122.189C338.204 121.552 338.016 120.821 338.016 119.995C338.016 119.17 338.204 118.439 338.58 117.801C338.956 117.164 339.473 116.668 340.131 116.312C340.8 115.947 341.558 115.764 342.404 115.764C343.156 115.764 343.825 115.915 344.41 116.218C345.005 116.511 345.465 116.95 345.789 117.535L344.645 118.271C344.373 117.864 344.039 117.566 343.642 117.378C343.255 117.18 342.837 117.08 342.388 117.08C341.845 117.08 341.359 117.201 340.931 117.441C340.502 117.681 340.163 118.021 339.912 118.46C339.661 118.888 339.536 119.4 339.536 119.995C339.536 120.591 339.661 121.108 339.912 121.547C340.163 121.986 340.502 122.325 340.931 122.566C341.359 122.806 341.845 122.926 342.388 122.926C342.837 122.926 343.255 122.832 343.642 122.644C344.039 122.445 344.373 122.142 344.645 121.735L345.789 122.456C345.465 123.031 345.005 123.475 344.41 123.788C343.825 124.091 343.156 124.242 342.404 124.242ZM351.172 124.242C350.336 124.242 349.594 124.06 348.946 123.694C348.299 123.328 347.787 122.827 347.411 122.189C347.035 121.542 346.846 120.81 346.846 119.995C346.846 119.17 347.035 118.439 347.411 117.801C347.787 117.164 348.299 116.668 348.946 116.312C349.594 115.947 350.336 115.764 351.172 115.764C351.997 115.764 352.734 115.947 353.382 116.312C354.04 116.668 354.552 117.164 354.917 117.801C355.294 118.428 355.482 119.16 355.482 119.995C355.482 120.821 355.294 121.552 354.917 122.189C354.552 122.827 354.04 123.328 353.382 123.694C352.734 124.06 351.997 124.242 351.172 124.242ZM351.172 122.926C351.705 122.926 352.18 122.806 352.598 122.566C353.026 122.325 353.361 121.986 353.601 121.547C353.841 121.098 353.961 120.58 353.961 119.995C353.961 119.4 353.841 118.888 353.601 118.46C353.361 118.021 353.026 117.681 352.598 117.441C352.18 117.201 351.705 117.08 351.172 117.08C350.639 117.08 350.164 117.201 349.746 117.441C349.328 117.681 348.994 118.021 348.743 118.46C348.492 118.888 348.367 119.4 348.367 119.995C348.367 120.58 348.492 121.098 348.743 121.547C348.994 121.986 349.328 122.325 349.746 122.566C350.164 122.806 350.639 122.926 351.172 122.926ZM357.562 124.148V115.842H359.004V118.083L358.769 117.488C359.041 116.945 359.459 116.521 360.023 116.218C360.587 115.915 361.245 115.764 361.998 115.764C362.677 115.764 363.272 115.895 363.784 116.156C364.306 116.417 364.714 116.814 365.007 117.347C365.299 117.88 365.445 118.554 365.445 119.369V124.148H363.941V119.541C363.941 118.736 363.742 118.13 363.345 117.723C362.959 117.315 362.41 117.112 361.7 117.112C361.167 117.112 360.702 117.216 360.305 117.425C359.908 117.634 359.6 117.942 359.38 118.35C359.171 118.757 359.067 119.264 359.067 119.87V124.148H357.562ZM371.662 124.242C370.857 124.242 370.136 124.065 369.499 123.71C368.872 123.354 368.376 122.858 368.01 122.221C367.645 121.583 367.462 120.842 367.462 119.995C367.462 119.149 367.645 118.413 368.01 117.786C368.376 117.148 368.872 116.652 369.499 116.297C370.136 115.942 370.857 115.764 371.662 115.764C372.362 115.764 372.994 115.921 373.558 116.234C374.122 116.548 374.572 117.018 374.906 117.645C375.251 118.271 375.423 119.055 375.423 119.995C375.423 120.936 375.256 121.719 374.922 122.346C374.598 122.973 374.154 123.448 373.589 123.772C373.025 124.086 372.383 124.242 371.662 124.242ZM371.787 122.926C372.31 122.926 372.78 122.806 373.198 122.566C373.626 122.325 373.96 121.986 374.201 121.547C374.451 121.098 374.577 120.58 374.577 119.995C374.577 119.4 374.451 118.888 374.201 118.46C373.96 118.021 373.626 117.681 373.198 117.441C372.78 117.201 372.31 117.08 371.787 117.08C371.254 117.08 370.779 117.201 370.361 117.441C369.943 117.681 369.609 118.021 369.358 118.46C369.107 118.888 368.982 119.4 368.982 119.995C368.982 120.58 369.107 121.098 369.358 121.547C369.609 121.986 369.943 122.325 370.361 122.566C370.779 122.806 371.254 122.926 371.787 122.926ZM374.624 124.148V121.907L374.718 119.98L374.561 118.052V112.52H376.066V124.148H374.624ZM381.059 120.685C381.059 120.277 381.127 119.922 381.263 119.619C381.399 119.316 381.566 119.045 381.765 118.804C381.973 118.564 382.198 118.345 382.438 118.146C382.679 117.937 382.903 117.733 383.112 117.535C383.321 117.326 383.488 117.107 383.614 116.877C383.75 116.647 383.818 116.38 383.818 116.077C383.818 115.576 383.619 115.168 383.222 114.855C382.825 114.542 382.276 114.385 381.576 114.385C380.95 114.385 380.406 114.489 379.947 114.698C379.487 114.907 379.095 115.215 378.771 115.623L377.627 114.808C378.066 114.254 378.625 113.826 379.304 113.523C379.983 113.209 380.777 113.053 381.686 113.053C382.438 113.053 383.091 113.168 383.645 113.398C384.199 113.617 384.627 113.936 384.93 114.354C385.244 114.761 385.4 115.257 385.4 115.842C385.4 116.281 385.332 116.657 385.197 116.971C385.061 117.284 384.888 117.561 384.679 117.801C384.471 118.042 384.246 118.266 384.006 118.475C383.776 118.684 383.556 118.893 383.347 119.102C383.138 119.311 382.966 119.541 382.83 119.792C382.694 120.042 382.626 120.34 382.626 120.685H381.059ZM381.859 124.242C381.566 124.242 381.32 124.143 381.122 123.945C380.934 123.746 380.84 123.511 380.84 123.239C380.84 122.947 380.934 122.707 381.122 122.519C381.32 122.33 381.566 122.236 381.859 122.236C382.151 122.236 382.391 122.33 382.579 122.519C382.768 122.707 382.862 122.947 382.862 123.239C382.862 123.511 382.768 123.746 382.579 123.945C382.391 124.143 382.151 124.242 381.859 124.242Z" fill="#F4F4F4"/>
</svg>
