<svg width="68" height="54" viewBox="0 0 68 54" fill="none" xmlns="http://www.w3.org/2000/svg">
<path d="M60.5373 0H6.72637C3.02687 0 0.0336318 3.02687 0.0336318 6.72637L0 47.0846C0 50.7841 3.02687 53.8109 6.72637 53.8109H60.5373C64.2368 53.8109 67.2637 50.7841 67.2637 47.0846V6.72637C67.2637 3.02687 64.2368 0 60.5373 0ZM59.192 14.2935L35.4143 29.1588C34.3381 29.8314 32.9256 29.8314 31.8494 29.1588L8.07164 14.2935C7.73441 14.1042 7.43909 13.8485 7.20357 13.5417C6.96804 13.235 6.7972 12.8836 6.7014 12.5089C6.60559 12.1342 6.58681 11.744 6.64618 11.3619C6.70555 10.9797 6.84185 10.6136 7.04682 10.2856C7.25179 9.95768 7.52117 9.67472 7.83866 9.45389C8.15615 9.23307 8.51515 9.07895 8.89392 9.00089C9.2727 8.92282 9.66338 8.92242 10.0423 8.99971C10.4213 9.077 10.7806 9.23037 11.0985 9.45055L33.6318 23.5423L56.1652 9.45055C56.4831 9.23037 56.8424 9.077 57.2214 8.99971C57.6003 8.92242 57.991 8.92282 58.3698 9.00089C58.7485 9.07895 59.1075 9.23307 59.425 9.45389C59.7425 9.67472 60.0119 9.95768 60.2169 10.2856C60.4218 10.6136 60.5581 10.9797 60.6175 11.3619C60.6769 11.744 60.6581 12.1342 60.5623 12.5089C60.4665 12.8836 60.2956 13.235 60.0601 13.5417C59.8246 13.8485 59.5293 14.1042 59.192 14.2935Z" fill="#E32D00"/>
</svg>
