<svg width="61" height="61" viewBox="0 0 61 61" fill="none" xmlns="http://www.w3.org/2000/svg">
<path d="M53.8109 0C55.5949 0 57.3058 0.708669 58.5672 1.97011C59.8286 3.23155 60.5373 4.94242 60.5373 6.72637V53.8109C60.5373 55.5949 59.8286 57.3058 58.5672 58.5672C57.3058 59.8286 55.5949 60.5373 53.8109 60.5373H6.72637C4.94242 60.5373 3.23155 59.8286 1.97011 58.5672C0.708669 57.3058 0 55.5949 0 53.8109V6.72637C0 4.94242 0.708669 3.23155 1.97011 1.97011C3.23155 0.708669 4.94242 0 6.72637 0H53.8109ZM52.1294 52.1294V34.3045C52.1294 31.3966 50.9742 28.6079 48.9181 26.5518C46.8619 24.4956 44.0732 23.3405 41.1654 23.3405C38.3067 23.3405 34.9771 25.0894 33.3628 27.7126V23.9795H23.9795V52.1294H33.3628V35.5489C33.3628 32.9592 35.448 30.8404 38.0376 30.8404C39.2864 30.8404 40.484 31.3365 41.367 32.2195C42.25 33.1025 42.7461 34.3001 42.7461 35.5489V52.1294H52.1294ZM13.0492 18.6993C14.5477 18.6993 15.9848 18.104 17.0444 17.0444C18.104 15.9848 18.6993 14.5477 18.6993 13.0492C18.6993 9.92139 16.1769 7.36537 13.0492 7.36537C11.5417 7.36537 10.096 7.9642 9.03011 9.03011C7.9642 10.096 7.36537 11.5417 7.36537 13.0492C7.36537 16.1769 9.92139 18.6993 13.0492 18.6993ZM17.724 52.1294V23.9795H8.40796V52.1294H17.724Z" fill="#E32D00"/>
</svg>
