<svg width="48" height="48" viewBox="0 0 48 48" fill="none" xmlns="http://www.w3.org/2000/svg">
<path d="M29.4 12.6C29.0335 12.9739 28.8282 13.4765 28.8282 14C28.8282 14.5235 29.0335 15.0261 29.4 15.4L32.6 18.6C32.9738 18.9665 33.4765 19.1717 34 19.1717C34.5235 19.1717 35.0261 18.9665 35.4 18.6L41.612 12.39C42.252 11.746 43.338 11.95 43.578 12.826C44.1822 15.0237 44.1481 17.3481 43.4795 19.5272C42.8109 21.7062 41.5356 23.6498 39.8027 25.1305C38.0699 26.6111 35.9511 27.5677 33.6945 27.8881C31.4378 28.2086 29.1365 27.8797 27.06 26.94L11.24 42.76C10.4443 43.5554 9.36528 44.0021 8.24025 44.0019C7.11522 44.0017 6.03634 43.5546 5.24096 42.759C4.44557 41.9633 3.99884 40.8843 3.99902 39.7593C3.99921 38.6343 4.44631 37.5554 5.24196 36.76L21.062 20.94C20.1222 18.8634 19.7934 16.5622 20.1138 14.3055C20.4343 12.0488 21.3908 9.9301 22.8715 8.19723C24.3522 6.46436 26.2957 5.18902 28.4748 4.52045C30.6538 3.85188 32.9782 3.81773 35.176 4.422C36.052 4.662 36.256 5.746 35.614 6.39L29.4 12.6Z" stroke="#E32D00" stroke-width="4" stroke-linecap="round" stroke-linejoin="round"/>
</svg>
