<svg width="1361" height="230" viewBox="0 0 1361 230" fill="none" xmlns="http://www.w3.org/2000/svg">
<path d="M40.1552 226.05H0L80.3105 3.94981H120.161L200.472 226.05H159.404L141.456 174.703H58.4076L40.1552 226.05ZM95.2166 70.1849L69.6632 141.889H130.2L104.647 70.1849C103.836 67.1466 102.923 64.1083 101.909 61.07C100.895 58.0317 100.287 55.3985 100.084 53.1704C99.6783 55.1959 98.9685 57.8291 97.9544 61.07C97.1432 64.1083 96.2306 67.1466 95.2166 70.1849Z" fill="#E32D00"/>
<path d="M257.256 226.05H222.881V0H259.994V97.8335C264.862 89.3263 271.96 82.8446 281.289 78.3884C290.618 73.7296 301.062 71.4003 312.622 71.4003C327.021 71.4003 339.291 74.8437 349.431 81.7305C359.774 88.4148 367.683 97.8335 373.159 109.987C378.837 122.14 381.677 136.218 381.677 152.219C381.677 167.411 378.736 180.881 372.855 192.629C366.973 204.377 358.658 213.593 347.91 220.277C337.161 226.759 324.587 230 310.188 230C299.034 230 288.894 227.569 279.768 222.708C270.844 217.847 264.152 211.162 259.69 202.655L257.256 226.05ZM260.298 150.396C260.298 159.309 262.022 167.31 265.47 174.399C268.918 181.286 273.785 186.653 280.072 190.502C286.562 194.148 294.065 195.971 302.583 195.971C311.304 195.971 318.807 194.047 325.094 190.198C331.381 186.35 336.147 180.982 339.392 174.095C342.637 167.208 344.259 159.309 344.259 150.396C344.259 141.484 342.637 133.584 339.392 126.697C336.147 119.811 331.381 114.443 325.094 110.594C318.807 106.543 311.304 104.518 302.583 104.518C294.065 104.518 286.562 106.543 280.072 110.594C273.785 114.443 268.918 119.811 265.47 126.697C262.022 133.382 260.298 141.281 260.298 150.396Z" fill="#E32D00"/>
<path d="M402.406 150.7C402.406 135.103 405.853 121.431 412.749 109.683C419.644 97.7323 429.176 88.4148 441.344 81.7305C453.512 75.0462 467.303 71.7041 482.716 71.7041C498.332 71.7041 512.123 75.0462 524.088 81.7305C536.256 88.4148 545.788 97.7323 552.683 109.683C559.579 121.431 563.027 135.103 563.027 150.7C563.027 166.297 559.579 180.07 552.683 192.021C545.788 203.769 536.256 212.985 524.088 219.67C512.123 226.354 498.332 229.696 482.716 229.696C467.303 229.696 453.512 226.354 441.344 219.67C429.176 212.985 419.644 203.769 412.749 192.021C405.853 180.07 402.406 166.297 402.406 150.7ZM439.519 150.7C439.519 159.815 441.344 167.816 444.994 174.703C448.848 181.59 453.918 186.957 460.205 190.806C466.694 194.654 474.198 196.579 482.716 196.579C491.234 196.579 498.738 194.654 505.227 190.806C511.717 186.957 516.787 181.59 520.438 174.703C524.088 167.816 525.913 159.815 525.913 150.7C525.913 141.383 524.088 133.382 520.438 126.697C516.787 119.811 511.717 114.443 505.227 110.594C498.738 106.746 491.234 104.822 482.716 104.822C474.198 104.822 466.694 106.746 460.205 110.594C453.918 114.443 448.848 119.811 444.994 126.697C441.344 133.382 439.519 141.383 439.519 150.7Z" fill="#E32D00"/>
<path d="M690.788 75.9577H727.902V226.05H693.526L690.788 205.997C686.327 213.087 679.634 218.86 670.711 223.316C661.787 227.772 652.256 230 642.115 230C624.877 230 611.391 224.531 601.656 213.593C591.921 202.655 587.054 188.071 587.054 169.841V75.9577H624.167V156.777C624.167 170.956 626.905 181.184 632.381 187.464C637.856 193.743 645.766 196.882 656.109 196.882C667.871 196.882 676.592 193.439 682.271 186.552C687.949 179.463 690.788 168.829 690.788 154.65V75.9577Z" fill="#E32D00"/>
<path d="M751.328 75.9577H846.24V106.948H751.328V75.9577ZM817.341 226.05H780.227V29.1678H817.341V226.05Z" fill="#E32D00"/>
<path d="M988.723 226.05H951.61V75.9577H985.681L990.244 102.695L985.985 99.0489C989.027 91.7569 994.604 85.3765 1002.72 79.9075C1010.83 74.236 1020.97 71.4003 1033.14 71.4003C1046.32 71.4003 1057.07 74.8437 1065.38 81.7305C1073.9 88.6173 1079.78 97.7323 1083.03 109.075H1076.94C1079.17 97.7323 1084.85 88.6173 1093.98 81.7305C1103.31 74.8437 1114.56 71.4003 1127.75 71.4003C1146 71.4003 1159.99 76.5654 1169.73 86.8956C1179.46 97.0233 1184.33 110.696 1184.33 127.913V226.05H1147.52V137.635C1147.52 126.9 1144.78 118.798 1139.3 113.329C1134.03 107.657 1126.93 104.822 1118.01 104.822C1112.33 104.822 1107.06 106.138 1102.19 108.771C1097.53 111.405 1093.78 115.354 1090.94 120.621C1088.1 125.887 1086.68 132.673 1086.68 140.978V226.05H1049.56V137.332C1049.56 126.799 1046.93 118.798 1041.65 113.329C1036.38 107.86 1029.39 105.125 1020.66 105.125C1014.78 105.125 1009.41 106.442 1004.54 109.075C999.674 111.506 995.821 115.456 992.982 120.925C990.142 126.191 988.723 132.875 988.723 140.978V226.05Z" fill="#E32D00"/>
<path d="M1287.99 230C1273.19 230 1260 226.658 1248.44 219.974C1237.09 213.087 1228.16 203.769 1221.67 192.021C1215.18 180.07 1211.94 166.398 1211.94 151.004C1211.94 135.407 1215.08 121.634 1221.37 109.683C1227.66 97.7323 1236.48 88.4148 1247.84 81.7305C1259.19 74.8437 1272.17 71.4003 1286.77 71.4003C1301.98 71.4003 1315.06 74.6411 1326.02 81.1228C1336.97 87.402 1345.38 96.2131 1351.27 107.556C1357.35 118.899 1360.39 132.47 1360.39 148.269V159.511L1231.41 159.815L1232.02 136.116H1323.58C1323.58 125.786 1320.24 117.481 1313.54 111.202C1307.05 104.923 1298.23 101.783 1287.08 101.783C1278.36 101.783 1270.95 103.606 1264.87 107.252C1258.99 110.898 1254.53 116.367 1251.49 123.659C1248.44 130.951 1246.92 139.863 1246.92 150.396C1246.92 166.601 1250.37 178.855 1257.27 187.16C1264.36 195.465 1274.81 199.617 1288.6 199.617C1298.74 199.617 1307.05 197.693 1313.54 193.844C1320.24 189.996 1324.6 184.527 1326.62 177.437H1361C1357.76 193.844 1349.64 206.706 1336.66 216.024C1323.89 225.341 1307.66 230 1287.99 230Z" fill="#E32D00"/>
</svg>
