<svg width="1361" height="173" viewBox="0 0 1361 173" fill="none" xmlns="http://www.w3.org/2000/svg">
<path d="M19.0753 27.7188V136.657H0V27.7188H19.0753ZM3.27857 136.657V119.072H64.5283V136.657H3.27857Z" fill="#810100"/>
<path d="M108.986 138.594C101.733 138.594 95.2754 136.955 89.6124 133.676C84.0487 130.298 79.6773 125.728 76.4981 119.966C73.3189 114.104 71.7293 107.398 71.7293 99.8474C71.7293 92.1974 73.2692 85.4416 76.3491 79.5799C79.4289 73.7182 83.7507 69.1481 89.3143 65.8695C94.878 62.4916 101.236 60.8026 108.39 60.8026C115.841 60.8026 122.249 62.3922 127.614 65.5715C132.979 68.6513 137.102 72.9731 139.983 78.5367C142.964 84.1004 144.454 90.7569 144.454 98.5062V104.02L81.2669 104.169L81.565 92.5452H126.422C126.422 87.4783 124.783 83.4049 121.504 80.325C118.325 77.2452 114.003 75.7052 108.539 75.7052C104.267 75.7052 100.64 76.5994 97.6598 78.3877C94.7786 80.176 92.5929 82.8585 91.1026 86.4351C89.6124 90.0117 88.8673 94.3832 88.8673 99.5494C88.8673 107.497 90.5562 113.508 93.9341 117.582C97.4114 121.655 102.528 123.692 109.284 123.692C114.251 123.692 118.325 122.748 121.504 120.86C124.783 118.972 126.919 116.29 127.912 112.813H144.752C143.162 120.86 139.188 127.169 132.83 131.739C126.571 136.309 118.623 138.594 108.986 138.594Z" fill="#810100"/>
<path d="M150.975 63.038H197.471V78.2387H150.975V63.038ZM183.314 136.657H165.132V40.088H183.314V136.657Z" fill="#810100"/>
<path d="M233.81 0L219.206 22.0559H205.793L216.97 0H233.81Z" fill="#810100"/>
<path d="M244.591 114.303H261.878C261.978 117.482 263.17 120.016 265.455 121.903C267.74 123.791 270.919 124.735 274.993 124.735C279.364 124.735 282.643 123.94 284.828 122.35C287.113 120.761 288.256 118.625 288.256 115.942C288.256 114.154 287.66 112.564 286.468 111.173C285.275 109.783 283.04 108.739 279.761 108.044L266.498 104.914C259.842 103.424 254.874 101.04 251.596 97.7611C248.416 94.3832 246.827 89.7634 246.827 83.9017C246.827 79.1328 248.069 75.0098 250.552 71.5325C253.135 68.0552 256.613 65.4224 260.984 63.6341C265.356 61.7465 270.373 60.8026 276.036 60.8026C281.5 60.8026 286.319 61.7961 290.491 63.7831C294.664 65.7702 297.893 68.552 300.178 72.1286C302.562 75.7052 303.804 79.878 303.904 84.6468H286.617C286.617 81.4676 285.623 78.9838 283.636 77.1955C281.649 75.3078 278.867 74.364 275.291 74.364C271.714 74.364 268.932 75.1588 266.945 76.7484C264.958 78.338 263.965 80.4741 263.965 83.1565C263.965 87.2299 267.144 90.0117 273.502 91.502L286.766 94.6315C292.925 96.0224 297.545 98.2578 300.625 101.338C303.804 104.418 305.394 108.789 305.394 114.452C305.394 119.42 304.102 123.741 301.519 127.417C298.936 130.994 295.31 133.776 290.64 135.763C285.971 137.65 280.606 138.594 274.546 138.594C265.405 138.594 258.103 136.359 252.639 131.888C247.274 127.417 244.591 121.556 244.591 114.303Z" fill="#810100"/>
<path d="M375.648 136.657L351.804 63.038H370.73L380.417 94.6315C381.212 97.5127 382.006 100.543 382.801 103.722C383.596 106.901 384.292 110.23 384.888 113.707C385.384 111.322 385.831 109.137 386.229 107.15C386.726 105.163 387.272 103.225 387.868 101.338C388.464 99.3507 389.16 97.1153 389.955 94.6315L400.088 63.038H418.568L428.403 94.6315C428.602 95.327 428.9 96.5192 429.297 98.2082C429.794 99.7978 430.291 101.536 430.788 103.424C431.284 105.312 431.732 107.199 432.129 109.087C432.626 110.875 432.973 112.415 433.172 113.707C433.569 111.819 434.066 109.683 434.662 107.299C435.258 104.914 435.855 102.629 436.451 100.444C437.146 98.1585 437.693 96.2211 438.09 94.6315L447.926 63.038H467.15L441.667 136.657H424.678L414.544 104.765C413.054 99.8971 411.861 95.7741 410.967 92.3961C410.073 88.9189 409.477 86.2364 409.179 84.3487C408.881 86.1371 408.334 88.5215 407.54 91.502C406.745 94.4825 405.404 99.003 403.516 105.063L393.382 136.657H375.648Z" fill="#810100"/>
<path d="M470.345 99.6984C470.345 92.0484 472.034 85.3422 475.412 79.5799C478.79 73.7182 483.459 69.1481 489.42 65.8695C495.381 62.5909 502.137 60.9517 509.688 60.9517C517.338 60.9517 524.094 62.5909 529.955 65.8695C535.916 69.1481 540.586 73.7182 543.964 79.5799C547.342 85.3422 549.031 92.0484 549.031 99.6984C549.031 107.348 547.342 114.104 543.964 119.966C540.586 125.728 535.916 130.249 529.955 133.527C524.094 136.806 517.338 138.445 509.688 138.445C502.137 138.445 495.381 136.806 489.42 133.527C483.459 130.249 478.79 125.728 475.412 119.966C472.034 114.104 470.345 107.348 470.345 99.6984ZM488.526 99.6984C488.526 104.169 489.42 108.094 491.208 111.471C493.096 114.849 495.58 117.482 498.66 119.37C501.839 121.258 505.515 122.201 509.688 122.201C513.86 122.201 517.536 121.258 520.716 119.37C523.895 117.482 526.379 114.849 528.167 111.471C529.955 108.094 530.849 104.169 530.849 99.6984C530.849 95.1283 529.955 91.2039 528.167 87.9254C526.379 84.5474 523.895 81.9146 520.716 80.027C517.536 78.1393 513.86 77.1955 509.688 77.1955C505.515 77.1955 501.839 78.1393 498.66 80.027C495.58 81.9146 493.096 84.5474 491.208 87.9254C489.42 91.2039 488.526 95.1283 488.526 99.6984Z" fill="#810100"/>
<path d="M609.64 62.74V79.5799H602.934C596.277 79.5799 591.061 81.3682 587.286 84.9448C583.511 88.4221 581.623 93.7374 581.623 100.891V136.657H563.442V63.187H580.58L582.07 78.3877H580.282C581.275 73.5195 583.61 69.5455 587.286 66.4656C590.962 63.3857 595.731 61.8458 601.592 61.8458C602.884 61.8458 604.176 61.8955 605.467 61.9948C606.759 62.0942 608.15 62.3426 609.64 62.74Z" fill="#810100"/>
<path d="M640.276 136.657H622.244V25.7815H640.276V93.8864L668.889 63.038H691.69L663.674 92.2471L691.094 136.657H670.231L651.006 105.659L640.276 116.836V136.657Z" fill="#810100"/>
<path d="M735 63.038H781.496V78.2387H735V63.038ZM767.339 136.657H749.157V40.088H767.339V136.657Z" fill="#810100"/>
<path d="M787.898 99.6984C787.898 92.0484 789.587 85.3422 792.965 79.5799C796.343 73.7182 801.013 69.1481 806.974 65.8695C812.935 62.5909 819.691 60.9517 827.241 60.9517C834.891 60.9517 841.647 62.5909 847.509 65.8695C853.47 69.1481 858.139 73.7182 861.517 79.5799C864.895 85.3422 866.584 92.0484 866.584 99.6984C866.584 107.348 864.895 114.104 861.517 119.966C858.139 125.728 853.47 130.249 847.509 133.527C841.647 136.806 834.891 138.445 827.241 138.445C819.691 138.445 812.935 136.806 806.974 133.527C801.013 130.249 796.343 125.728 792.965 119.966C789.587 114.104 787.898 107.348 787.898 99.6984ZM806.079 99.6984C806.079 104.169 806.974 108.094 808.762 111.471C810.65 114.849 813.133 117.482 816.213 119.37C819.392 121.258 823.068 122.201 827.241 122.201C831.414 122.201 835.09 121.258 838.269 119.37C841.448 117.482 843.932 114.849 845.72 111.471C847.509 108.094 848.403 104.169 848.403 99.6984C848.403 95.1283 847.509 91.2039 845.72 87.9254C843.932 84.5474 841.448 81.9146 838.269 80.027C835.09 78.1393 831.414 77.1955 827.241 77.1955C823.068 77.1955 819.392 78.1393 816.213 80.027C813.133 81.9146 810.65 84.5474 808.762 87.9254C806.974 91.2039 806.079 95.1283 806.079 99.6984Z" fill="#810100"/>
<path d="M876.823 98.2082C876.823 91.0549 878.263 84.6965 881.144 79.1328C884.125 73.4698 888.248 68.9991 893.514 65.7205C898.779 62.4419 904.889 60.8026 911.844 60.8026C918.103 60.8026 923.468 62.1935 927.939 64.9754C932.409 67.6578 935.539 71.4331 937.327 76.3013L935.39 77.9406L936.88 63.038H953.72V132.931C953.72 141.078 952.13 148.132 948.951 154.093C945.871 160.153 941.45 164.773 935.688 167.952C930.025 171.231 923.17 172.87 915.122 172.87C904.591 172.87 895.948 170.039 889.192 164.376C882.436 158.713 878.462 150.963 877.27 141.128H895.451C896.047 145.896 898.034 149.622 901.412 152.305C904.889 154.987 909.459 156.328 915.122 156.328C921.381 156.328 926.349 154.49 930.025 150.814C933.8 147.238 935.688 142.37 935.688 136.21V117.88L937.774 119.817C935.986 124.486 932.707 128.212 927.939 130.994C923.17 133.776 917.656 135.167 911.397 135.167C904.442 135.167 898.382 133.577 893.215 130.398C888.049 127.219 884.026 122.847 881.144 117.283C878.263 111.72 876.823 105.361 876.823 98.2082ZM895.153 97.7611C895.153 101.934 895.948 105.659 897.537 108.938C899.226 112.117 901.561 114.651 904.541 116.538C907.522 118.426 910.999 119.37 914.973 119.37C919.146 119.37 922.723 118.476 925.703 116.687C928.783 114.8 931.118 112.266 932.707 109.087C934.396 105.808 935.241 102.033 935.241 97.7611C935.241 93.489 934.446 89.813 932.856 86.7332C931.267 83.5539 928.932 81.0702 925.852 79.2819C922.872 77.4935 919.245 76.5994 914.973 76.5994C910.9 76.5994 907.373 77.5432 904.392 79.4309C901.412 81.2192 899.127 83.703 897.537 86.8822C895.948 90.0614 895.153 93.6877 895.153 97.7611Z" fill="#810100"/>
<path d="M1005.47 138.594C998.218 138.594 991.76 136.955 986.097 133.676C980.534 130.298 976.162 125.728 972.983 119.966C969.804 114.104 968.214 107.398 968.214 99.8474C968.214 92.1974 969.754 85.4416 972.834 79.5799C975.914 73.7182 980.235 69.1481 985.799 65.8695C991.363 62.4916 997.721 60.8026 1004.87 60.8026C1012.33 60.8026 1018.73 62.3922 1024.1 65.5715C1029.46 68.6513 1033.59 72.9731 1036.47 78.5367C1039.45 84.1004 1040.94 90.7569 1040.94 98.5062V104.02L977.752 104.169L978.05 92.5452H1022.91C1022.91 87.4783 1021.27 83.4049 1017.99 80.325C1014.81 77.2452 1010.49 75.7052 1005.02 75.7052C1000.75 75.7052 997.125 76.5994 994.145 78.3877C991.263 80.176 989.078 82.8585 987.587 86.4351C986.097 90.0117 985.352 94.3832 985.352 99.5494C985.352 107.497 987.041 113.508 990.419 117.582C993.896 121.655 999.013 123.692 1005.77 123.692C1010.74 123.692 1014.81 122.748 1017.99 120.86C1021.27 118.972 1023.4 116.29 1024.4 112.813H1041.24C1039.65 120.86 1035.67 127.169 1029.31 131.739C1023.06 136.309 1015.11 138.594 1005.47 138.594Z" fill="#810100"/>
<path d="M1047.46 63.038H1093.96V78.2387H1047.46V63.038ZM1079.8 136.657H1061.62V40.088H1079.8V136.657Z" fill="#810100"/>
<path d="M1123.59 136.657H1105.41V25.7815H1123.74V72.5757C1126.02 68.9991 1129.2 66.1676 1133.28 64.0812C1137.45 61.8955 1142.22 60.8026 1147.58 60.8026C1156.62 60.8026 1163.48 63.5348 1168.15 68.9991C1172.92 74.4633 1175.3 81.9146 1175.3 91.353V136.657H1157.12V95.6747C1157.12 91.502 1156.47 88.0744 1155.18 85.3919C1153.89 82.7094 1152.1 80.7224 1149.82 79.4309C1147.53 78.04 1144.85 77.3445 1141.77 77.3445C1137.99 77.3445 1134.72 78.189 1131.93 79.878C1129.25 81.4676 1127.17 83.703 1125.68 86.5841C1124.28 89.4653 1123.59 92.7439 1123.59 96.4199V136.657Z" fill="#810100"/>
<path d="M1226.1 138.594C1218.85 138.594 1212.39 136.955 1206.73 133.676C1201.16 130.298 1196.79 125.728 1193.61 119.966C1190.43 114.104 1188.84 107.398 1188.84 99.8474C1188.84 92.1974 1190.38 85.4416 1193.46 79.5799C1196.54 73.7182 1200.86 69.1481 1206.43 65.8695C1211.99 62.4916 1218.35 60.8026 1225.5 60.8026C1232.95 60.8026 1239.36 62.3922 1244.73 65.5715C1250.09 68.6513 1254.22 72.9731 1257.1 78.5367C1260.08 84.1004 1261.57 90.7569 1261.57 98.5062V104.02L1198.38 104.169L1198.68 92.5452H1243.53C1243.53 87.4783 1241.9 83.4049 1238.62 80.325C1235.44 77.2452 1231.12 75.7052 1225.65 75.7052C1221.38 75.7052 1217.75 76.5994 1214.77 78.3877C1211.89 80.176 1209.71 82.8585 1208.22 86.4351C1206.73 90.0117 1205.98 94.3832 1205.98 99.5494C1205.98 107.497 1207.67 113.508 1211.05 117.582C1214.52 121.655 1219.64 123.692 1226.4 123.692C1231.36 123.692 1235.44 122.748 1238.62 120.86C1241.9 118.972 1244.03 116.29 1245.03 112.813H1261.87C1260.28 120.86 1256.3 127.169 1249.94 131.739C1243.68 136.309 1235.74 138.594 1226.1 138.594Z" fill="#810100"/>
<path d="M1322.32 62.74V79.5799H1315.61C1308.95 79.5799 1303.74 81.3682 1299.96 84.9448C1296.19 88.4221 1294.3 93.7374 1294.3 100.891V136.657H1276.12V63.187H1293.26L1294.75 78.3877H1292.96C1293.95 73.5195 1296.29 69.5455 1299.96 66.4656C1303.64 63.3857 1308.41 61.8458 1314.27 61.8458C1315.56 61.8458 1316.85 61.8955 1318.14 61.9948C1319.44 62.0942 1320.83 62.3426 1322.32 62.74Z" fill="#810100"/>
<path d="M1356.23 104.02H1341.63C1341.03 100.046 1340.48 95.327 1339.99 89.8627C1339.49 84.2991 1339.09 78.338 1338.8 71.9796C1338.5 65.6211 1338.35 59.213 1338.35 52.7552V27.7188H1359.81V52.7552C1359.81 59.3124 1359.66 65.8198 1359.36 72.2776C1359.06 78.6361 1358.62 84.5971 1358.02 90.1608C1357.52 95.625 1356.93 100.245 1356.23 104.02ZM1349.08 138.594C1345.7 138.594 1342.82 137.452 1340.43 135.167C1338.05 132.782 1336.86 130 1336.86 126.821C1336.86 123.443 1338.05 120.612 1340.43 118.327C1342.82 116.042 1345.7 114.899 1349.08 114.899C1352.26 114.899 1355.04 116.042 1357.42 118.327C1359.81 120.612 1361 123.443 1361 126.821C1361 130 1359.81 132.782 1357.42 135.167C1355.04 137.452 1352.26 138.594 1349.08 138.594Z" fill="#810100"/>
</svg>
