<svg viewBox="0 0 1362 366" fill="none" xmlns="http://www.w3.org/2000/svg">
<path d="M47.6508 3.35045V275.481H0V3.35045H47.6508ZM107.587 181.669H36.1104V139.23H97.5353C113.915 139.23 126.324 135.135 134.762 126.945C143.449 118.507 147.792 106.842 147.792 91.9512C147.792 77.0603 143.449 65.644 134.762 57.7022C126.324 49.7604 114.163 45.7895 98.2798 45.7895H31.6431V3.35045H107.587C125.952 3.35045 141.836 7.07317 155.237 14.5186C168.639 21.9641 179.063 32.3877 186.508 45.7895C193.954 58.9431 197.676 74.4544 197.676 92.3235C197.676 109.696 193.954 125.208 186.508 138.857C179.063 152.259 168.639 162.807 155.237 170.501C141.836 177.946 125.952 181.669 107.587 181.669Z" fill="#810100"/>
<path d="M346.463 90.8344V132.901H329.711C313.083 132.901 300.053 137.368 290.622 146.303C281.191 154.989 276.476 168.267 276.476 186.136V275.481H231.059V91.9512H273.87L277.593 129.923H273.126C275.607 117.762 281.44 107.835 290.622 100.141C299.805 92.4476 311.718 88.6007 326.36 88.6007C329.587 88.6007 332.813 88.7248 336.04 88.973C339.266 89.2212 342.74 89.8417 346.463 90.8344Z" fill="#810100"/>
<path d="M360.228 183.158C360.228 164.048 364.448 147.296 372.886 132.901C381.324 118.258 392.988 106.842 407.879 98.6521C422.77 90.4621 439.647 86.3671 458.508 86.3671C477.618 86.3671 494.495 90.4621 509.137 98.6521C524.028 106.842 535.693 118.258 544.131 132.901C552.569 147.296 556.788 164.048 556.788 183.158C556.788 202.268 552.569 219.144 544.131 233.787C535.693 248.181 524.028 259.474 509.137 267.664C494.495 275.854 477.618 279.949 458.508 279.949C439.647 279.949 422.77 275.854 407.879 267.664C392.988 259.474 381.324 248.181 372.886 233.787C364.448 219.144 360.228 202.268 360.228 183.158ZM405.646 183.158C405.646 194.326 407.879 204.129 412.347 212.567C417.062 221.006 423.267 227.582 430.96 232.298C438.902 237.013 448.085 239.371 458.508 239.371C468.932 239.371 478.115 237.013 486.056 232.298C493.998 227.582 500.203 221.006 504.67 212.567C509.137 204.129 511.371 194.326 511.371 183.158C511.371 171.742 509.137 161.938 504.67 153.748C500.203 145.31 493.998 138.733 486.056 134.018C478.115 129.302 468.932 126.945 458.508 126.945C448.085 126.945 438.902 129.302 430.96 134.018C423.267 138.733 417.062 145.31 412.347 153.748C407.879 161.938 405.646 171.742 405.646 183.158Z" fill="#810100"/>
<path d="M548.86 361.848L556.305 321.643C559.532 322.636 562.262 323.256 564.495 323.504C566.729 323.753 569.211 323.877 571.941 323.877C579.883 323.877 585.343 321.643 588.321 317.176C591.299 312.709 592.788 305.884 592.788 296.701V91.5789H638.205V301.913C638.205 321.271 632.745 336.782 621.825 348.447C611.153 360.111 595.89 365.943 576.036 365.943C571.817 365.943 567.722 365.695 563.751 365.199C559.78 364.703 554.816 363.586 548.86 361.848ZM615.497 54.724C607.803 54.724 601.226 52.1181 595.766 46.9063C590.554 41.4463 587.948 34.8695 587.948 27.1758C587.948 19.4822 590.554 13.0295 595.766 7.8177C601.226 2.6059 607.803 0 615.497 0C622.942 0 629.395 2.6059 634.855 7.8177C640.315 13.0295 643.045 19.4822 643.045 27.1758C643.045 34.8695 640.315 41.4463 634.855 46.9063C629.395 52.1181 622.942 54.724 615.497 54.724Z" fill="#810100"/>
<path d="M767.401 280.321C749.284 280.321 733.152 276.226 719.006 268.036C705.108 259.598 694.188 248.181 686.246 233.787C678.304 219.144 674.333 202.392 674.333 183.53C674.333 164.42 678.18 147.544 685.873 132.901C693.567 118.258 704.363 106.842 718.261 98.6521C732.159 90.2139 748.043 85.9949 765.912 85.9949C784.526 85.9949 800.533 89.9657 813.935 97.9075C827.337 105.601 837.636 116.397 844.834 130.295C852.279 144.193 856.002 160.822 856.002 180.18V193.954L698.158 194.326L698.903 165.289H810.957C810.957 152.632 806.862 142.456 798.672 134.762C790.73 127.069 779.934 123.222 766.284 123.222C755.612 123.222 746.554 125.456 739.108 129.923C731.911 134.39 726.451 141.091 722.728 150.026C719.006 158.96 717.144 169.88 717.144 182.786C717.144 202.64 721.363 217.655 729.802 227.831C738.488 238.006 751.269 243.094 768.146 243.094C780.555 243.094 790.73 240.736 798.672 236.02C806.862 231.305 812.198 224.604 814.68 215.918H856.746C852.775 236.02 842.848 251.78 826.965 263.196C811.329 274.613 791.475 280.321 767.401 280.321Z" fill="#810100"/>
<path d="M881.555 183.158C881.555 164.296 885.402 147.544 893.095 132.901C901.037 118.258 911.833 106.842 925.483 98.6521C939.381 90.2139 955.389 85.9949 973.506 85.9949C998.572 85.9949 1019.05 92.5717 1034.93 105.725C1051.06 118.631 1060.37 136.127 1062.85 158.216H1017.43C1014.7 147.792 1009.62 139.974 1002.17 134.762C994.974 129.302 985.915 126.573 974.995 126.573C965.564 126.573 957.126 128.93 949.681 133.646C942.483 138.113 936.899 144.566 932.928 153.004C928.957 161.442 926.972 171.493 926.972 183.158C926.972 194.822 928.833 204.874 932.556 213.312C936.279 221.75 941.615 228.327 948.564 233.042C955.761 237.51 964.199 239.743 973.878 239.743C985.295 239.743 994.726 237.013 1002.17 231.553C1009.86 226.093 1014.95 218.276 1017.43 208.1H1063.22C1061.24 222.495 1056.15 235.152 1047.96 246.072C1040.02 256.744 1029.72 265.182 1017.06 271.386C1004.4 277.343 990.01 280.321 973.878 280.321C955.265 280.321 939.009 276.35 925.111 268.408C911.212 260.218 900.417 248.926 892.723 234.531C885.278 219.889 881.555 202.764 881.555 183.158Z" fill="#810100"/>
<path d="M1078.79 91.5789H1194.94V129.551H1078.79V91.5789ZM1159.57 275.481H1114.15V34.249H1159.57V275.481Z" fill="#810100"/>
<path d="M1209.4 219.641H1252.58C1252.83 227.582 1255.81 233.911 1261.51 238.626C1267.22 243.342 1275.16 245.7 1285.34 245.7C1296.26 245.7 1304.45 243.714 1309.91 239.743C1315.62 235.772 1318.47 230.436 1318.47 223.736C1318.47 219.268 1316.98 215.297 1314 211.823C1311.03 208.348 1305.44 205.742 1297.25 204.005L1264.12 196.187C1247.49 192.465 1235.08 186.508 1226.89 178.318C1218.95 169.88 1214.98 158.34 1214.98 143.697C1214.98 131.784 1218.08 121.485 1224.29 112.798C1230.74 104.112 1239.43 97.5353 1250.35 93.068C1261.27 88.3526 1273.8 85.9949 1287.94 85.9949C1301.59 85.9949 1313.63 88.4767 1324.06 93.4403C1334.48 98.4039 1342.54 105.353 1348.25 114.288C1354.21 123.222 1357.31 133.646 1357.56 145.558H1314.38C1314.38 137.617 1311.89 131.412 1306.93 126.945C1301.97 122.229 1295.02 119.872 1286.08 119.872C1277.15 119.872 1270.2 121.857 1265.24 125.828C1260.27 129.799 1257.79 135.135 1257.79 141.836C1257.79 152.011 1265.73 158.96 1281.62 162.683L1314.75 170.501C1330.14 173.975 1341.68 179.559 1349.37 187.253C1357.31 194.946 1361.28 205.866 1361.28 220.013C1361.28 232.422 1358.06 243.218 1351.6 252.4C1345.15 261.335 1336.09 268.284 1324.43 273.248C1312.76 277.963 1299.36 280.321 1284.22 280.321C1261.39 280.321 1243.15 274.737 1229.5 263.569C1216.1 252.4 1209.4 237.758 1209.4 219.641Z" fill="#810100"/>
</svg>
